<?xml version="1.0" encoding="utf-8"?><!DOCTYPE svg PUBLIC "-//W3C//DTD SVG 1.1//EN" "http://www.w3.org/Graphics/SVG/1.1/DTD/svg11.dtd"><svg version="1.1" id="Layer_1" xmlns="http://www.w3.org/2000/svg" xmlns:xlink="http://www.w3.org/1999/xlink" x="0px" y="0px" width="257.717px" height="257.719px" viewBox="0 0 257.717 257.719" enable-background="new 0 0 257.717 257.719" xml:space="preserve"><path id="Blue_1_" fill="#595A59" d="M243.494,257.719c7.854,0,14.224-6.369,14.224-14.225V14.224C257.718,6.368,251.349,0,243.494,0H14.224C6.368,0,0,6.367,0,14.224v229.271c0,7.854,6.366,14.225,14.224,14.225L243.494,257.719L243.494,257.719z"/><path id="f" fill="#FFFFFF" d="M182.409,262.307v-99.803h33.499l5.016-38.896h-38.515V98.777c0-11.261,3.127-18.935,19.273-18.935l20.596-0.009V45.045c-3.562-0.476-15.786-1.533-30.012-1.533c-29.693,0-50.023,18.126-50.023,51.413v28.684h-33.585v38.896h33.585v99.803L182.409,262.307L182.409,262.307z"/></svg>