<?xml version="1.0" encoding="utf-8"?>
<!DOCTYPE svg PUBLIC "-//W3C//DTD SVG 1.1//EN" "http://www.w3.org/Graphics/SVG/1.1/DTD/svg11.dtd">
<svg version="1.1" id="Ebene_1" xmlns="http://www.w3.org/2000/svg" xmlns:xlink="http://www.w3.org/1999/xlink" x="0px" y="0px"
	 width="353px" height="85px" viewBox="0 0 353 85" enable-background="new 0 0 353 85" xml:space="preserve">
<g>
	<polygon points="102,56.7 107.1,56.7 107.1,37 107.2,37 117.3,56.7 123.8,56.7 123.8,30.3 118.7,30.3 118.7,50.1 118.6,50.1 
		108.6,30.3 102,30.3 102,56.7 	"/>
	<path fill-rule="evenodd" clip-rule="evenodd" d="M129.3,56.7h5.1V37.2h-5.1V56.7L129.3,56.7z M129.3,33.7h5.1v-4.8h-5.1V33.7
		L129.3,33.7z"/>
	<path fill-rule="evenodd" clip-rule="evenodd" d="M143.2,45.1c0.2-2.6,1.7-4.6,4.5-4.6c2.8,0,4,2.1,4.1,4.6H143.2L143.2,45.1z
		 M155.3,51.5c-1.9,1.1-4,2-6.5,2c-3.1,0-5.3-1.8-5.6-4.9h13.5c0-6.8-2-11.8-9.3-11.8c-6,0-9,4.7-9,10.3c0,6.4,3.7,10.1,10.2,10.1
		c2.7,0,4.8-0.5,6.7-1.5V51.5L155.3,51.5z"/>
	<path fill-rule="evenodd" clip-rule="evenodd" d="M164.7,46.9c0-2.6,0.9-6.2,4.2-6.2c3.3,0,4.5,3.5,4.5,6.2c0,2.8-1.1,6.3-4.5,6.3
		C165.7,53.2,164.7,49.6,164.7,46.9L164.7,46.9z M173.6,56.7h4.9V28.3h-5.1v11.2h-0.1c-1.5-1.9-3.3-2.7-5.8-2.7
		c-6,0-8.2,4.8-8.2,10.1c0,5.3,2.2,10.2,8.2,10.2c2.4,0,4.5-0.8,6-2.6h0.1V56.7L173.6,56.7z"/>
	<path fill-rule="evenodd" clip-rule="evenodd" d="M187.4,45.1c0.2-2.6,1.7-4.6,4.5-4.6s4,2.1,4.1,4.6H187.4L187.4,45.1z
		 M199.4,51.5c-1.9,1.1-4,2-6.5,2c-3.1,0-5.3-1.8-5.6-4.9h13.5c0-6.8-2-11.8-9.3-11.8c-6,0-9,4.7-9,10.3c0,6.4,3.7,10.1,10.2,10.1
		c2.7,0,4.8-0.5,6.7-1.5V51.5L199.4,51.5z"/>
	<path d="M204.9,56.7h5.1v-7.1c0-2.8,0-7.9,4.1-7.9c0.9,0,1.8,0.2,2.3,0.4v-5.1c-0.5-0.2-1.1-0.2-1.5-0.2c-3,0-5.1,3.1-5.3,4.9h-0.1
		v-4.4h-4.5V56.7L204.9,56.7z"/>
	<path d="M231.4,37.5c-1.6-0.3-3.1-0.7-5.5-0.7c-4,0-7.6,1.9-7.6,6c0,7,8.8,4.4,8.8,8.2c0,1.9-2,2.4-3.3,2.4c-1.7,0-3.4-0.5-5-1.3
		l-0.3,4.2c1.9,0.5,3.8,0.8,5.7,0.8c4.1,0,8.2-1.8,8.2-6.4c0-7-8.8-5.1-8.8-8.2c0-1.7,1.6-2.2,3-2.2c1.9,0,3,0.3,4.5,0.8L231.4,37.5
		L231.4,37.5z"/>
	<path fill-rule="evenodd" clip-rule="evenodd" d="M237.3,42.6c1.7-1.3,3.9-2.1,6-2.1c3,0,4.4,1.1,4.4,4.2h-2.8
		c-2.1,0-4.6,0.2-6.5,1.1c-1.9,0.9-3.3,2.6-3.3,5.6c0,3.7,3.4,5.8,6.8,5.8c2.3,0,4.8-1.2,6-3.4h0.1c0,0.6,0,1.9,0.2,2.9h4.5
		c-0.1-1.5-0.2-2.9-0.2-4.3c0-1.4-0.1-2.9-0.1-4.9V45c0-5.7-2.5-8.2-8.4-8.2c-2.2,0-4.8,0.6-6.8,1.5L237.3,42.6L237.3,42.6z
		 M239.8,51.1c0-3,3.4-3.4,5.6-3.4h2.2c0,1.5-0.2,2.9-1.1,4c-0.8,1.1-2,1.7-3.6,1.7C241.2,53.5,239.8,52.7,239.8,51.1L239.8,51.1z"
		/>
	<path d="M270.4,37.4c-1.4-0.4-2.9-0.6-4.9-0.6c-6.1,0-9.4,4.5-9.4,10.1c0,5.9,3.2,10.3,9.6,10.3c2.1,0,3.6-0.2,5.1-0.6l-0.2-4.2
		c-0.9,0.4-2.5,0.9-3.9,0.9c-3.6,0-5.3-2.8-5.3-6.4c0-3.7,2-6.2,5.1-6.2c1.5,0,2.5,0.3,3.4,0.7L270.4,37.4L270.4,37.4z"/>
	<path d="M274,56.7h5.1v-9.5c0-2.5,0.8-6.5,4.5-6.5c3.3,0,3.3,3.2,3.3,5.6v10.4h5.1V44.4c0-4.4-2-7.6-6.6-7.6
		c-2.6,0-4.8,1.2-6.1,3.1h-0.1V28.3H274V56.7L274,56.7z"/>
	<path d="M309,37.5c-1.6-0.3-3.1-0.7-5.5-0.7c-4,0-7.6,1.9-7.6,6c0,7,8.8,4.4,8.8,8.2c0,1.9-2,2.4-3.3,2.4c-1.7,0-3.4-0.5-5-1.3
		l-0.3,4.2c1.9,0.5,3.8,0.8,5.7,0.8c4.1,0,8.2-1.8,8.2-6.4c0-7-8.8-5.1-8.8-8.2c0-1.7,1.6-2.2,3-2.2c1.9,0,3,0.3,4.5,0.8L309,37.5
		L309,37.5z"/>
	<path fill-rule="evenodd" clip-rule="evenodd" d="M317.5,45.1c0.2-2.6,1.7-4.6,4.5-4.6s4,2.1,4.1,4.6H317.5L317.5,45.1z
		 M329.5,51.5c-1.9,1.1-4,2-6.5,2c-3.1,0-5.3-1.8-5.6-4.9H331c0-6.8-2-11.8-9.3-11.8c-6,0-9,4.7-9,10.3c0,6.4,3.7,10.1,10.2,10.1
		c2.7,0,4.8-0.5,6.7-1.5V51.5L329.5,51.5z"/>
	<path d="M334.9,56.7h5.1v-9.5c0-2.5,0.8-6.5,4.5-6.5c3.3,0,3.3,3.2,3.3,5.6v10.4h5.1V44.4c0-4.4-2-7.6-6.6-7.6
		c-2.6,0-4.8,0.9-6.4,3.1h-0.1v-2.6h-4.8V56.7L334.9,56.7z"/>
	<path fill="#E4032E" d="M36.9,84.5C16.5,84.5,0.1,68,0.1,47.7v-0.1V0.1h73.5v47.5v0.1C73.6,68,57.2,84.5,36.9,84.5L36.9,84.5z"/>
	<path fill-rule="evenodd" clip-rule="evenodd" d="M36.9,82.8C56.2,82.8,72,67,72,47.6V1.7H1.7v46C1.7,67.1,17.5,82.8,36.9,82.8
		L36.9,82.8z M73.7,47.7c0,20.4-16.5,36.9-36.9,36.9C16.5,84.6,0,68.1,0,47.7v-0.1V0h73.7v47.6V47.7L73.7,47.7z"/>
	<path fill-rule="evenodd" clip-rule="evenodd" fill="#FFFFFF" d="M13.4,39.5l0.2,1.3l0.3,1.1l0.6,1.4l0.2,0.7l-0.3,0.3l-0.7,0.3
		l-0.3,0.5l0.2,1l0.4,0.5h0.3h0.3l1,0.3l0.5,1l0.3,1.9L16,51.4l-0.2,0.2l-1.4-0.1l-1.3-0.4l-0.7-0.3l-0.1-0.3V50l-0.1-0.3l-0.4-0.6
		l-0.5-1.6l-0.3-1l-0.2-1l0.5-2.7l-0.1-2.1l-0.2-2.7l0.1-1l0.3-0.6l0.7-0.7l0.6-0.8l0.9-0.2l1.3,0.6l1.6,0.3l1.9,0.3h0.9l0.1-1.3
		l0.4-2V31l0.2-1.6l0.8-1.4l0.8-0.4l0.3-1.6l0.7-1.3l1.1-1.5l1.4-1.9l0.5-1.6v-1l-0.6-0.5l-1,0.3L23,18.4h-0.5l-0.7,0.4l-0.3,0.3
		L21,20l-0.7,0.1h-0.7L18.8,20l-0.5-0.5L18,19.1l-1.1-0.2l-0.4-0.2l-0.3-0.8v-0.7v-0.8l-0.3-0.8l0.6-0.8l1-0.9l0.9-0.3L19,13
		l1.3-0.9l0.9-0.8l0.3-0.6l0.5-0.3l0.7-0.2l0.7-0.3l0.2-0.3l-0.4-0.5V8.3l0.4-0.5l1-0.2l0.8,0.1l0.6-0.3L26.5,7l0.3,0.1l0.3,0.5
		l0.3,0.6l0.3-0.1L28,6.9l0.6-0.7L29,6.3l0.3,0.5l0.3,1.5l0.4,1.2l0.1,0.6l0.5,0.1l1.2,0.1l1.2,0.4l0.3,0.8l0.9,0.6l0.4,0.8l0.1,0.9
		l0.8,0.3l1.1,1.3l0.1,1.5l0.3,0.8l1,1.5l0.1,1L38,21.3l0.1,0.6l0.5,0.7l0.1,1.3l-0.3,0.9l-0.3,0.7l0.3,1.4l-0.1,0.8
		c0,0-0.2,0.5-0.5,0.8c-0.3,0.3-1.1,1.2-1.1,1.2l0.2,0.6l1.6,0.9l2.3,0.8l2.7,0.3h2h2.2l2,0.7l1.7,0.9l1.7,1.1l1.7,0.7l1-0.3l1-0.9
		v-1l-0.3-0.7l-1-1.1l-0.3-1.2v-1.1l0.8-1.7l1.4-1l2.7-0.6l1.6,0.4l0.8,0.7l0.3,0.4l0.8-0.1l1.5,0.4l1.1,0.9l0.6,1l0.3,1.4l-0.1,1.4
		l-0.2,0.8l0.4,0.8l0.8,1.2l0.3,1.6l-0.5,2.1l-0.4,1.3v1.1l0.5,0.7l0.7,0.4l0.5,0.1l-0.9,0.6l-1-0.3l-0.7-0.3l0.3,0.7l0.3,0.9
		l0.3,1.5l-0.3,1.4l-0.5,1L65.1,49l-0.3-0.1l0.6-1.3l0.3-1v-1.3l-0.3-0.9L65,45.3l-0.2,0.3l-0.5-0.9l-0.1,1l-0.2,0.7L63.8,47
		l-0.3-0.2l-0.1-0.7l-0.3-1l-0.4-0.6l-0.1,0.6l-0.2,1.1l-0.7,0.3l-0.1-0.7l-0.2-1L61,44l-0.8-0.9l-0.9-1.5l-0.2-1.4l0.1-0.9l0.5-1.1
		l0.8-1l0.3-0.9l-0.3-1l-0.8-0.3l-0.5,0.1l-0.6,0.9l-0.9,0.9l-1.2,0.4h-1.1L55,37.3l0.7,1.3l0.4,1.5l0.2,2.1l0.1,1.6l0.4,1.4
		l-0.4,2.5l0.6,0.7l1,1.4l0.9,1.2l0.8,0.9l1.1,0.6l1,0.7l0.3,0.5l0.1,1.2l0.3,1.5l0.5,1.8l0.8,2.1l0.6,1.5l0.3,1.7l-0.4,0.7
		l-1.2,0.3l-0.3,0.5l-1.1,1.5v0.7l0.2,0.7V69l-1.7,0.9l-1.6,0.5H57l-0.8-0.3l0.2-0.9l0.8-1.6l0.5-0.8v-0.5l0.6-0.5l0.7-0.4l1.2-1.9
		l0.3-3.2l-0.7-2.6L59,56.1l-0.9-1.2l-1.6-1.4L55.1,53l-2.2-0.9l-1.3-0.8l-1.6-1.4l-2.1-0.8l-1.3-1l-0.8-1l-1.3-0.3h-1l-1.7-0.7
		l-1.6-0.3l-1.6,0.3l-2.7,0.1l-3-0.3l-2.9-1.1l-2-1l-1.6-0.4L26.1,44l-0.6,0.5l-0.8-0.3l-1.2-0.7l-0.9-0.2l-1.9-0.6l-2.3-1.6
		l-1.4-1.4l-1.6-1.3l-1.3-0.2L13.5,39L13.4,39.5L13.4,39.5z"/>
	<path fill-rule="evenodd" clip-rule="evenodd" d="M55.4,62.7L55.4,62.7l-0.1,0.2c0,0.1,0,0.3,0,0.3l0,0.1l0,0.1l0.1,0.1l0,0.1
		l0,0.1l0,0.1l0,0.1l0,0.1l0,0.1l0,0.1l0,0.3l0,0.1l0,0.1l0,0.2c-0.1,0.1,0,0.3,0,0.4c0,0.1-0.1,0.2-0.1,0.3l-0.1,0.1l-0.1,0.1
		l0,0.1L55,65.9L55,66l-0.1,0l-0.1,0l-0.1,0l-0.1,0.1l-0.1,0l-0.1,0h-0.1l-0.1,0l-0.1,0l-0.1,0l-0.1,0l-0.1,0l-0.1,0l-0.1,0
		l-0.4,0.1l-0.1,0l-0.1,0l-0.3,0.1l-0.2,0l-0.1,0l-0.1,0l-0.3,0l-0.1,0l-0.1,0L52,67l-0.2,0l-0.1,0l-0.4,0l-0.4,0l-0.2,0l-0.4,0
		l-0.2,0l-0.3,0l-0.3,0c-0.1,0-0.1,0-0.2-0.1l-0.1,0l-0.1-0.1l0-0.1c0-0.1,0-0.2,0-0.2l0-0.1l0-0.1l0-0.1l0-0.1l0-0.1l0-0.1l0-0.1
		l0-0.1l0-0.1l0.1-0.1l0-0.1l0-0.1l0.2-0.3l0-0.1l0-0.1l0.2-0.3l0-0.1l0.1,0l0-0.1l0-0.1l0-0.1l0.1-0.1l0.1,0l0-0.1l0-0.1l0-0.1
		l0.1,0c0-0.1,0-0.2,0-0.3c0-0.1,0-0.2,0-0.2l0-0.1l0.1-0.4l0,0H55.4L55.4,62.7z M60.5,62.7C60.5,62.7,60.5,62.7,60.5,62.7l0.1,0.1
		l0.1,0.1l0.1,0.1l0.1,0l0.2,0l0.1,0l0.1,0l0.3,0.2l0.1,0.1c0.2,0,0.2,0,0.4,0c0,0,0,0,0,0.1l-0.2,0.2l-0.1,0.1l-0.1,0
		c-0.2,0.1-0.4,0-0.5,0l-0.1,0.1L61,63.9l0,0.1l0,0.1l0,0.1l0,0.1l-0.1,0c0,0,0-0.1,0-0.1l0-0.1c0.1-0.1,0.1-0.1,0.1-0.2l-0.1,0
		l0-0.1c-0.1-0.1,0-0.2-0.1-0.2l0,0.1l0,0.1L60.3,64l-0.1,0.1l-0.1,0.1l-0.1,0.1L60,64.4l-0.1,0.2l0,0.1l0,0.1l-0.1,0.1l0,0.1l0,0.1
		l0,0.1l0,0.1l0,0.1l-0.1,0.1l-0.1,0.1l-0.1,0.1l-0.1,0.1l0,0.1c0,0.1-0.1,0.1-0.1,0.2c-0.1,0.1-0.3,0.2-0.4,0.3l-0.2,0l-0.1,0
		l-0.1,0.1c-0.1,0-0.1,0-0.1,0.1c-0.1,0.1,0,0.3,0,0.5l0,0.1L58,67l0,0.1l-0.1,0.1l0,0.1l-0.2,0.2l-0.1,0.1l0,0.1l0,0.1l0,0.1l0,0.1
		l-0.1,0.1l-0.1,0.1l-0.1,0.1l0,0.1l-0.1,0.1l0,0.1l0,0.1l0,0.1l0,0.1l-0.1,0l0,0.1l0,0.1l0,0.1l0,0.1l-0.1,0.1l-0.1,0.1l0,0.1
		c-0.1,0.2-0.1,0.3-0.1,0.5l0.1,0l0.1,0l0.1,0l0.1,0l0.1,0l0.4,0l0.3,0l0.1,0l0.1,0l0.2,0l0.4,0c0.1,0,0.2-0.1,0.3-0.1l0.5,0
		l0.6-0.2l0.3-0.1l0.1,0l0.1,0l0.1-0.1l0.1,0l0.1,0l0.1,0l0.1,0l0.1,0l0.1-0.1l0.1,0l0.1-0.1l0.1,0l0.1,0l0-0.1l0.1,0l0.1,0l0.1-0.1
		c0,0,0.1-0.2,0.1-0.3l-0.1-0.1l-0.1-0.2l0-0.1l-0.1,0l-0.1,0L61,68l-0.1,0l-0.2-0.1l-0.1,0l-0.2-0.1l-0.1,0l-0.1,0l-0.1,0l-0.1,0
		l-0.1,0l-0.1,0l-0.6,0l-0.1,0l-0.1,0l-0.1,0l-0.1,0l-0.1,0l-0.1,0c-0.1,0-0.1-0.1-0.2-0.1l0-0.1c0.1,0,0.2,0,0.3,0.1l0.1,0l0.1,0
		l0.1,0l0.2,0l0.2,0l0.3,0l0.5,0l0.6,0.1l0.2,0.1l0.1,0l0.1,0l0.1,0c0.1,0.1,0.2,0.2,0.4,0.2l0.1-0.1c0,0,0-0.2,0-0.2l0-0.1
		l-0.1-0.1l-0.1-0.1l-0.1,0l-0.1,0l-0.1,0l0-0.1l-0.1,0c-0.1-0.1-0.3-0.1-0.3-0.2l0-0.1c0,0,0.1-0.1,0.1-0.1l0.3,0
		c0,0,0.2,0.1,0.2,0c0,0,0.1,0,0.1,0l0.3-0.7l0-0.1l0.1,0l0.1-0.1l0-0.1l0.1,0l0.3-0.3l0.1-0.1l0.1-0.1l0.1-0.1l0.1-0.1l0-0.1l0-0.1
		l0.1-0.1l0-0.1l0-0.1l0.1-0.2c0.1-0.2,0-0.2,0-0.3l0-0.1c0,0,0-0.1,0.1-0.1c0,0,0.1,0,0.1-0.1l0.3,0l0.1,0.1h0.1c0.1,0,0.2,0,0.3,0
		l0.1,0l0.1-0.1l0.1,0l0.1,0l0.1,0l0.2,0l0.1,0l0.1-0.1c0-0.1,0.1-0.5,0-0.6l0-0.3l0-0.1h0.7l0,0.1c0,0.1,0.1,0.3,0,0.4l0,0.2l0,0.3
		l0,0.2l0,0.1l0,0.1l0,0.1l-0.1,0.1l0,0.1l-0.1,0l-0.1,0.1l-0.1,0l-0.1,0l-0.3,0l-0.4,0.1l-0.1,0l-0.1,0c-0.1,0-0.4,0-0.5,0.1l0,0.1
		l0,0.1l0,0.1C63,65,63,65.1,63,65.1l-0.1,0.1l-0.1,0.1l0,0.1l0,0.1l-0.1,0.1l-0.1,0l-0.1,0.1l-0.1,0.2l0,0.1L62.3,66l0,0.1l0,0.1
		l0,0.1l0,0.2L62,66.5l0,0.1l0,0.1c0,0.1,0,0.3,0,0.3l0,0.1l0,0.1l0,0.1l0.1,0.3l0,0.1c0,0.1,0,0.4,0,0.5l0,0.1l0,0.1l0,0.2
		c0.1,0.2,0,0.3,0,0.4l0,0.1L62,69.1l-0.1,0.1l0,0.1l0,0.1l-0.1,0.1l-0.1,0.1l-0.1,0l-0.1,0l-0.1,0.1l-0.5,0.2l-0.1,0l-0.2,0.1
		l-0.1,0l-0.1,0l-0.1,0l-0.1,0l-0.1,0l-0.1,0l-0.1,0l-0.1,0.1l-0.1,0l-0.1,0l-0.2,0.1l-0.1,0l-0.1,0l-0.1,0l-0.1,0l-0.2,0l-0.1,0
		l-0.1,0l-0.2,0c-0.2,0.1-0.4,0.1-0.6,0l-0.3,0l-0.4,0l-0.3,0l-0.1,0l-0.2,0c-0.1,0-0.2-0.1-0.3-0.1c-0.1-0.1-0.2-0.1-0.2-0.3
		c-0.1-0.2,0.1-0.4,0.1-0.5l0.1-0.5l0-0.1l0-0.1l0-0.1l0.1-0.1l0-0.1l0-0.1l0.1-0.1l0-0.1l0-0.1l0-0.1l0-0.1l0-0.1l0.1-0.1l0-0.1
		l0-0.1l0-0.1l0-0.1l0.1-0.1l0-0.1l0-0.1l0.1-0.1l0-0.1l0.1-0.1l0.1-0.1l0.1-0.1l0.1-0.1l0-0.1l0-0.4l0-0.1l0-0.1l0.1-0.1l0-0.1
		l0.1-0.1c0.1-0.1,0.1-0.2,0.2-0.2l0.1,0l0.2-0.1l0.1,0l0.1,0l0.1-0.1l0.1-0.1l0.2-0.1l0.1-0.1L59,65l0-0.1l0-0.1l0.1-0.1l0.1-0.1
		l0-0.1l0-0.1l0-0.1l0.1,0l0-0.1l0.1-0.1l0.1-0.1l0-0.1l0.1-0.1l0-0.1l0.1-0.3l0-0.1l0-0.1l0-0.1l0-0.1l0-0.1l0-0.4l0-0.1H60.5
		L60.5,62.7z"/>
	<path fill-rule="evenodd" clip-rule="evenodd" d="M56.6,54.7c0.1,0.2,0.1,0.5,0.2,0.8l0,0.3l0.1,0.2l0.1,0.2l0,0.1l0,0.1l0,0.1
		l0.1,0.1l0,0.1l0.1,0.2l0.1,0.1l0,0.1l0.1,0.2l0.1,0.1l0,0.1l0,0.1l0.1,0.1l0,0.1l0,0.1l0,0.1l0.2,0.1l0,0.1l0,0.2l0,0.1l0,0.1
		l0,0.1l0,0.3l0,0.1l0,0.1l0,0.1l0,0.2l0,0.4l0,0.6l0,0.1l0,0.1l0,0.1l0,0.1l0,0.1c0,0-0.1,0-0.1,0c-0.2,0.1-0.3-0.1-0.4-0.1l-0.1,0
		c0,0,0,0-0.1,0l-0.1,0l-0.1,0l-0.1,0L57,60.7l-0.3,0c-0.1,0.1-0.1,0.1-0.1,0.1l0,0.1l0,0.1l0,0.1l0,0.1l0,0.1l-0.1,0.1l-0.1,0.1
		l-0.1,0.1l0,0.1l0,0.1l0,0.1L56,61.9L55.9,62l-0.1,0.1l0,0.1l-0.2,0.2l-0.1,0.1l0,0.1l0,0.1l0,0h-4.7l0-0.1c0,0,0,0,0.1-0.1
		c0.1-0.1,0.1-0.1,0.1-0.1l0.1-0.1l0.1,0h0.1l0.1-0.1l0.1,0l0.1,0l0.1,0l0.1,0l0.1,0l0.1,0l0.1,0l0.1,0l0.1-0.1l0.1-0.1l0.1-0.1
		l0-0.1l0.1,0l0-0.1l0-0.1l0.1,0l0-0.1l0-0.1l0.1,0l0.1-0.1l0-0.1l0-0.1l0-0.1l0.1-0.1l0-0.1l0-0.1l0-0.1l0-0.1l0-0.1l0.1-0.1
		l0.1-0.1l0-0.1l0-0.1l0-0.1l0-0.1l0.1-0.1l0-0.2l0.1-0.1l0-0.1l0-0.1l0-0.8l0-0.1c0.1-0.2,0.1-0.3,0.1-0.6l0-0.2l0-0.3l0-0.4l0-0.1
		l0-0.1l0-0.1l0-0.2l0-0.2l0-0.1l0-0.2l0-0.1l0-0.1l-0.1-0.4l0-0.1c-0.1-0.1-0.1-0.1-0.1-0.2l0-0.2L53,54.7l0,0H56.6L56.6,54.7z
		 M58.4,54.7L58.4,54.7l0.1,0.1l0,0.1l0.1,0.1l0,0.1l0,0.1l0,0.1l0.1,0.1l0.2,0.2l0.1,0.1l0,0.1l0,0.1l0,0.1l0.1,0l0.1,0.1l0.1,0.1
		l0,0.1l0,0.1l0,0.1l0,0.1l0.1,0.1l0,0.1l0.1,0l0,0.1l0,0.1l0,0.1l0.1,0.3l0,0.1l0.1,0.2l0.1,0.4l0.3,0.8l0,0.4l0,0.1l0,0.1l0,0.1
		l0,0.3l0,0.1l0,0.1l0,0.1l0,0.1l0,0.2l0,0.2l0,0.1l0,0.4l0,0.2l0,0.1l0,0.1l0,0.1c0,0.1,0,0.2,0,0.3l0,0.3l0,0.1l0,0.1l0,0.1
		l-0.1,0.3c0,0-0.1,0.2,0,0.3l-0.6,0l0,0l0-0.1l0-0.2l0-0.1l0-0.1l0-0.1l0-0.1l0-0.1l0-0.1l0-0.1l0-0.1l0-0.1c0.1-0.1,0-0.3,0-0.4
		l0-0.3L60.1,60c0-0.2-0.1-0.4-0.1-0.5l0-0.1l0-0.1l0-0.1l0-0.1l0-0.1l-0.1-0.4l0-0.1l-0.1-0.2l0-0.1l0-0.1l0-0.1l0-0.1l0-0.1l0-0.1
		l0-0.1l0-0.1l0-0.1l0-0.1l0-0.1l-0.1-0.1l-0.1-0.3l0-0.1l0-0.1l-0.1-0.2l-0.1,0l0-0.1l-0.1,0l-0.1,0l-0.1-0.1l0-0.1l0-0.1l0-0.1
		l0-0.1l0-0.1l0-0.1l0-0.1c0,0-0.1,0-0.1-0.1c-0.1-0.1-0.2-0.2-0.3-0.3l0-0.1l0-0.1l0-0.1l-0.1-0.1L58,55.1l-0.1,0L57.8,55l-0.1-0.1
		l0-0.1l0-0.1c0,0,0,0,0,0L58.4,54.7L58.4,54.7z M62.4,54.7C62.4,54.7,62.4,54.7,62.4,54.7l0,0.1l0,0.1l0,0.1l0,0.1l0.1,0.3l0,0.1
		l0,0.1l0,0.1l0,0.1l0,0.1l0,0.3l0,0.1l0,0.1l0,0.1l0,0.1l0,0.1l0,0.1l0,0.1l0,0.1l0,0.1l0.2,0.4l0.1,0.4l0,0.1l0,0.1l0,0.1l0,0.1
		l0,0.1l0.1,0.4l0.3,1l0.1,0.1l0.1,0.2l0,0.1l0,0.1l0,0.1L64,60l0,0.1l0.1,0.1l0,0.1l0,0.1l0,0.1l0,0.1l0,0.1l0,0.1l0,0.1l0,0.1
		l0.1,0.2l0,0.1l0.1,0.1l0,0.1l0,0.1l0.1,0.1l0,0.1l0,0.1l0.1,0.1l0,0.1l0,0.1l0,0.1l0,0.1l0,0.1l0.1,0.3l0,0.1l0,0.1l0,0.2h-0.7
		l0-0.1c-0.1-0.4-0.1-0.8-0.3-1.1l0-0.1l0-0.1L64,61.3l0-0.1l0-0.1l0-0.1l-0.1-0.1l0-0.1l0-0.1l-0.1-0.1l0-0.1l0-0.1l0-0.1l0-0.1
		l-0.1-0.1l-0.1,0l0-0.1l0-0.2l0-0.1l-0.1-0.1l0-0.1l0-0.1l0-0.2l0-0.1l0-0.1l0-0.1l0-0.1l0-0.1l0-0.1l0-0.1l0-0.1l0-0.1l0-0.1
		l0-0.1l0-0.1l-0.1-0.4l0-0.1l0-0.1l0-0.1l0-0.1l0-0.1l0-0.2l0-0.1l0-0.1l0-0.1l0-0.1l0-0.1l0-0.1l0-0.1l0-0.1l0-0.1l0-0.1l0-0.1
		l0-0.1l0-0.1l0-0.1l0-0.1l0-0.1l0-0.2l0-0.1l0-0.1l0-0.1l0-0.1l-0.1-0.2l0-0.2c0,0,0-0.2,0-0.3L62.4,54.7L62.4,54.7z"/>
	<path fill-rule="evenodd" clip-rule="evenodd" d="M12.9,50.7L12.9,50.7l0.1,0.1l0.1,0.1l0.1,0.1c0.2,0.1,0.3,0,0.4,0l0.2,0l0.1,0
		l0.1,0l0.1,0l0.1,0l0.1,0l0.2,0.1l0.1,0l0.1,0l0.1,0l0.1,0l0.1,0l0.3,0l0.1,0l0.1,0l0.1,0l0.1,0c0,0,0,0,0.1,0l0.1,0l0.1-0.1l0-0.1
		l0-0.1l0-0.1l0-0.3h0.5l0,0.1l0,0.1l0,0.1l0,0.2c0,0.2,0,0.5-0.1,0.6c-0.1,0.2-0.5,0.3-0.8,0.2h-0.1l-0.2,0l-0.1,0l-0.1,0l-0.1,0
		l-0.1,0l-0.1,0l-0.1,0l-0.1,0l-0.1,0l-0.1,0l-0.1,0l-0.1,0l-0.1,0l-0.1,0l-0.1,0l-0.3-0.1l-0.1,0l-0.1-0.1l-0.1,0c0,0-0.1,0-0.2,0
		l-0.4,0l-0.1,0l-0.1-0.1l-0.1-0.1l-0.1-0.1L12.6,51l-0.1-0.1l-0.1-0.1l0-0.1l0,0H12.9L12.9,50.7z M51.3,50.7L51.3,50.7L51.3,50.7
		l0.2,0.1l0.1,0l0.1,0.1l0.3,0.2l0.2,0.2l0.1,0l0.1,0l0.1,0l0.1,0l0.1,0l0.1,0l0,0.1l0.1,0l0.1,0l0.3,0.1l0.1,0.1l0.1,0l0.1,0
		l0.2,0.1l0.1,0l0.1,0l0.1,0l0.1,0l0.1,0l0.1,0l0.1,0l0.1,0l0.1,0l0.1,0l0.1,0l0.1,0l0.1,0l0.1,0l0.1,0l0.1,0l0.1,0l0.1,0l0.1,0
		l0.1,0l0.2,0.1l0.1,0l0.1,0.1l0.1,0l0.1,0l0.1,0l0.4,0.1l0.2,0l0.1,0l0.1,0.1l0.1,0l0.1,0l0.2,0.1l0.1,0l0.1,0l0.1,0.1l0.1,0l0.1,0
		l0,0.1l0.1,0l0.1,0.1l0.1,0.1l0.1,0.1l0.1,0.1l0.1,0l0.2,0.2l0.1,0.1l0.2,0.2l0.1,0.1l0.1,0.1l0,0.1h-0.9c0,0-0.1,0-0.1-0.1
		c-0.1,0-0.1-0.1-0.1-0.1l0-0.1l-0.1,0l-0.1-0.1L57,54.1L56.9,54l-0.1,0l-0.1,0l-0.1,0c-0.1,0-0.1-0.1-0.2-0.1c0,0,0,0.1,0,0.2
		c0,0.1,0,0.1,0,0.2l0,0.1l0,0.1c0,0,0,0.1,0,0.2l-3.7,0l-0.1-0.1l-0.1-0.2l0-0.1l-0.1-0.1l0-0.1l0-0.1l0-0.1l0-0.1l-0.1-0.1l0-0.1
		l0-0.1l-0.1-0.1l0-0.1l0-0.1l0-0.1l0-0.1L52.2,53l0-0.1l0-0.1l-0.1-0.1L52,52.6l0-0.1l-0.1-0.3l-0.1-0.1l0-0.1L51.7,52l0-0.1l0-0.1
		l0-0.1l-0.1-0.1l0-0.1l-0.3-0.3L51,51.2L51,51.1L50.9,51l0-0.1c0-0.1-0.1-0.1-0.1-0.1l-0.1-0.1l-0.1-0.1H51.3L51.3,50.7z M59,50.7
		L59,50.7L59,50.7l0.4,0.4l0,0.1l0,0.1l0.1,0.1l0.1,0.1l0.1,0.1l0.1,0l0.1,0l0.1,0.1l0.1,0l0.1,0.1l0.1,0l0.1,0l0.1,0l0.1,0.1l0.1,0
		l0.1,0.1l0.1,0l0.1,0.1l0.1,0.1l0.1,0.1l0.1,0l0.1,0l0.1,0l0.1,0l0.1,0l0.1,0.1l0.1,0l0.1,0l0.1,0l0,0.1l0.1,0
		c0,0.1,0.1,0.1,0.1,0.1c0.1,0.1,0.3,0.2,0.3,0.3l0,0.1l0.1,0.3l0,0.1l0,0.2l0,0.1l0,0.1l0,0.1c0,0.1-0.1,0.3-0.1,0.4h-0.6
		c0-0.2,0-0.5,0-0.5l0-0.1l0-0.1l0-0.3l0-0.1c-0.1-0.2-0.3-0.2-0.4-0.3l-0.1-0.1l-0.1,0l-0.1-0.1l0-0.1l0-0.1l-0.1-0.1l-0.1,0
		l-0.1,0l-0.1-0.1l-0.1,0l-0.1,0l-0.1,0l-0.1,0l-0.1-0.1l-0.1-0.1l-0.1,0l-0.1,0l-0.1-0.1l-0.1,0l-0.1,0L60,52.2l-0.1,0l-0.1-0.1
		l-0.1-0.1l-0.1,0l-0.1,0l-0.1,0l-0.1-0.1l-0.1,0l0-0.1l0-0.1l-0.2-0.1l0-0.1l-0.1,0l-0.2-0.2l-0.1-0.1l0-0.1l-0.1,0l0-0.1l0-0.1
		l-0.1-0.1l0-0.1l0,0H59L59,50.7z"/>
	<path fill-rule="evenodd" clip-rule="evenodd" d="M11.5,46.7c0,0.1,0.1,0.3,0.1,0.4l0,0.2l0,0.1l0,0.2l0,0.1l0,0.3l0,0.2l0,0.1
		l0.1,0.1l0,0.1l0,0.1l0,0.1l0,0.1l0,0.1l0,0.1l0,0.1l0.1,0l0.1,0.1l0,0.1l0,0.1l0,0.1l0,0.1l0,0.1l0.1,0.1l0.1,0.1l0,0.1l0.1,0
		c0,0.1,0,0.2,0,0.3c0,0,0,0,0,0.1l-0.1,0l0,0.2c0,0,0,0,0,0.1l0.1,0.1l0,0.1l0.1,0l0.1,0l0,0h-0.5l0,0l0-0.1l0-0.1l0-0.1l0-0.1
		c0-0.1,0-0.2,0-0.3l-0.1-0.1l0-0.1l-0.2-0.1l-0.1-0.1l-0.1-0.1l0-0.1l0-0.1l0-0.1l0-0.1L11.5,49v-0.1l0-0.1l-0.1-0.1l-0.1-0.2
		l0-0.1l0-0.1l0-0.1l0-0.3l0-0.1l0-0.1l0-0.1l0-0.4l0-0.1l0-0.1l0-0.1L11,47l-0.1-0.1l0-0.1l0-0.1l0,0H11.5L11.5,46.7z M15.4,46.7
		l0.1,0.1l0,0.1l0.1,0l0.1,0.1l0.1,0.1l0,0.1l0,0.1l0,0.1l0,0.1l0.1,0.2l0,0.1l0,0.1l0,0.1l0,0.1l0,0.2l0,0.1l0,0.1l0,0.1l0,0.2
		l0,0.2l0,0.1l0,0.1l0,0.2l0,1.1l0,0.1l0,0.4H16l0-0.4l0-0.3l0-0.6c0-0.1,0-0.2,0-0.3l0-0.3c-0.1-0.2-0.1-0.4-0.1-0.5l0-0.2l0-0.1
		l0-0.1l0-0.1l0-0.1l-0.1-0.3l0-0.1l-0.1-0.1l-0.1-0.1c0,0-0.2-0.1-0.3-0.1l-0.2,0.1l-0.1,0l-0.1,0l0-0.1l-0.2,0l-0.1,0l-0.1,0.1
		L14,47.2L14,47.3l-0.1,0c-0.1,0-0.1,0.1-0.3,0.1c0-0.1,0-0.1,0-0.1c0-0.1,0.1-0.3,0.1-0.4c0-0.1-0.1-0.1-0.1-0.2L15.4,46.7
		L15.4,46.7z M44.3,46.7c0.2,0.1,0.4,0.1,0.6,0H45l0,0h1.2l0,0.1l0,0.1l0.1,0.1l0,0.1l0.1,0.1l0,0.1l0,0.1l0,0.1l0,0.1l0,0.1
		l0.1,0.1l0,0.1l0.2,0.2l0.2,0.2l0.3,0.1l0.1,0.1l0.1,0l0.4,0.2l0.3,0l0.1,0l0.1,0l0.2,0.1l0.3,0.1l0.1,0l0.1,0l0.1,0.1l0.1,0l0.1,0
		l0.1,0l0.1,0l0.1,0.1l0,0.1l0.1,0.1l0.1,0l0.1,0.1l0.2,0.2l0.2,0.2l0.1,0l0.1,0.1l0.1,0l0.1,0l0.2,0.2l0,0.1l0.1,0l0.1,0.1l0.1,0
		l0.1,0.1h-0.7l-0.1-0.1l-0.1,0l0-0.1l-0.1,0l-0.1,0l-0.1,0l-0.1,0l-0.1-0.1l-0.1,0l-0.1,0l-0.2,0l-0.1,0l-0.1,0l-0.1,0
		c-0.1,0-0.2,0-0.2,0c-0.2,0-0.6,0-0.7,0L48,50l-0.3,0l-0.2-0.1l-0.1,0l-0.1,0l-0.1,0l-0.1-0.1l-0.1,0l-0.1,0h-0.1l-0.1-0.1l-0.1,0
		l-0.1-0.1l-0.1-0.1l0-0.1l0-0.1l0-0.1l0-0.1l-0.1-0.1l-0.2-0.1l-0.4,0l-0.5,0c-0.2,0.1-0.3,0.1-0.5,0h-0.2l-0.1,0l-0.1,0l-0.1,0
		L44,48.7l-0.1-0.1l-0.1,0l-0.1-0.1l-0.1,0l-0.1,0l-0.1,0c0-0.1-0.1-0.1-0.1-0.1c-0.1-0.1-0.1-0.2-0.2-0.3L43,48l0-0.1l0-0.1l0-0.1
		l-0.1-0.1l0-0.1l-0.1-0.1l0-0.1l0-0.1l0-0.1l-0.1,0l-0.1-0.2l-0.2-0.2l-0.1,0L42,46.8l-0.1,0l-0.1,0H44.3L44.3,46.7z M56.9,46.7
		l0,0.2l0,0.2c0,0.1-0.2,0.3-0.1,0.5l0,0.1l0,0.1l0,0.1l0,0.1l0.1,0l0.1,0.1l0.1,0.1l0.1,0.1l0.1,0l0,0.1l0.1,0.1l0.1,0.1l0.3,0.2
		l0.1,0.1l0.1,0.1l0,0.1l0.1,0.1l0.1,0.1l0.1,0.1l0,0.1l0,0.1l0.1,0l0.1,0.1l0.1,0.1l0.1,0.1l0,0.1l0,0.1l0.1,0.1l0,0.1l0,0.1
		l0.1,0.1l0.1,0l0,0.1l0,0h-0.5l0,0l-0.1-0.1l0-0.1l-0.1-0.2l0-0.1l-0.1-0.1l0-0.1l0-0.1L58,49.9l-0.1-0.1l0-0.1l0-0.1l0-0.1l0-0.1
		l0-0.1l0-0.1l0-0.1l0-0.1l0-0.1l-0.1,0l-0.1-0.1L57.3,49l-0.1-0.1L57,48.6l0-0.1l0-0.1l-0.1-0.1l-0.1,0L56.4,48l-0.1,0l-0.1,0
		l-0.1,0c0,0-0.1-0.1-0.1-0.1c-0.1-0.2,0.1-0.5,0.1-0.6l0-0.1l0.1-0.4H56.9L56.9,46.7z M62.6,46.7l-0.1,0.1l-0.1,0l-0.1,0l-0.1,0
		l-0.1,0l-0.1,0l-0.1,0l-0.1,0l-0.1,0l-0.1,0.1l-0.3,0l-0.2,0l-0.1,0l-0.1,0l-0.1,0l-0.1-0.1l-0.1,0L60.5,47
		c-0.1-0.1-0.1-0.1-0.1-0.2c0,0,0-0.1,0-0.1L62.6,46.7L62.6,46.7z M64.2,46.7c0,0.1,0,0.2-0.1,0.3l-0.1,0.1l0,0.1l-0.1,0.1l-0.1,0.2
		l-0.1,0.1l-0.2,0.2l-0.1,0l-0.1,0l-0.1,0l-0.1,0l-0.1,0C63,48,62.7,48,62.6,48l-0.1,0l-0.1-0.1c0-0.1,0-0.2,0-0.2l0.1,0l0.1,0
		l0.2,0l0.1-0.1l0-0.1l0-0.1l0.1-0.1l0-0.1l0.1-0.1l0-0.1l0-0.1H64.2L64.2,46.7z M65.8,46.7C65.8,46.7,65.8,46.8,65.8,46.7l0,0.5
		l0,0.1l0,0.1l0,0.1l0,0.1l0,0.1l0,0.1l0,0.1l0,0.1l-0.1,0.1l0,0.1l0,0.1l0,0.1l0,0.1l0,0.1c-0.1,0.1-0.1,0.1-0.1,0.2c0,0,0,0,0.1,0
		l0.1,0l0.1-0.1l0.1,0l0-0.1l0.1,0l0.1-0.1l0-0.1l0.2-0.2l0.1-0.1l0.1-0.1l0-0.1l0-0.1l0.1-0.1l0-0.1l0.1-0.2l0-0.1l0-0.1l0-0.1
		l0-0.1l0.1-0.2l0-0.1l0-0.1h0.6l0,0.1l0,0.1l0,0.1l0,0.1l0,0.1l0,0.1l0,0.1l0,0.1l0,0.1l0,0.1l-0.1,0.1l0,0.1l-0.1,0.1l0,0.1
		L66.6,48l0,0.1l0,0.1l0,0.1l-0.1,0l-0.1,0.1l-0.1,0.1l-0.1,0.1l0,0.1c-0.1,0-0.1,0-0.1,0.1c-0.1,0.1-0.1,0.1-0.2,0.1l-0.1,0l-0.1,0
		l-0.1,0l-0.1,0l-0.1,0l0,0.1l-0.1,0l-0.1,0l-0.1,0l-0.1,0l-0.1,0.1l-0.1,0l-0.1,0l-0.1,0l-0.2,0.1l-0.1,0l-0.1,0l-0.1,0l-0.1,0
		l-0.1,0l-0.1,0l-0.1,0c-0.1,0.1-0.5,0-0.6,0l-0.5,0l-0.1,0l-0.1,0l-0.1-0.1l-0.1-0.1l-0.1-0.1c-0.1-0.1-0.2-0.2-0.3-0.4
		c-0.1-0.2,0.1-0.5,0.3-0.4l0.1,0l0,0.1l0,0.1c0,0.1,0.1,0.1,0.1,0.1c0.1,0,0.1,0,0.1,0.1l0.1,0.1l0.1,0l0.1,0c0.1,0.1,0.3,0,0.4,0
		l0.1,0l0.1,0l0.1,0l0.1,0l0.1,0l0.1,0l0.1,0l0.1-0.1l0.1,0l0.2-0.1l0.1,0c0.1-0.1,0.1-0.1,0.2-0.2l0.1-0.2l0.1,0l0-0.1l0-0.1L65,48
		l0-0.1l0-0.1l0-0.1l0-0.1l0-0.1l0.1-0.1l0-0.1l0-0.1c0-0.1,0.1-0.1,0-0.2c0-0.1-0.1-0.3,0-0.4l0,0H65.8L65.8,46.7z"/>
	<path fill-rule="evenodd" clip-rule="evenodd" d="M9.2,42.6L9.2,42.6l-0.1,0.1c-0.1,0.1-0.4,0.1-0.5,0l-0.1,0l-0.1,0l-0.1-0.1H9.2
		L9.2,42.6z M11.6,42.6l0,0.4l0,0.3l0,0.2l0,0.1l0,0.1l0,0.1l0,0.1l0,0.1l0,0.2l0,0.3l0,0.1l0,0.1l0,0.1l0,0.2l0,0.1l0,0.2l0,0.2
		l0,0.1c-0.1,0.2,0,0.4,0,0.6l0,0.1l0.1,0.2l0.1,0c0-0.1,0.1-0.1,0.1-0.2l0.1,0l0.1,0l0.1,0l0.1,0l0-0.1l0.1-0.1l0-0.1
		c0.1-0.2,0.1-0.4,0.3-0.4c0,0.1,0,0,0,0.1l0,0.2l0,0.1l0,0.1l0,0.1l0,0.1l0,0.1l0,0.1c-0.1,0.1-0.1,0.2-0.3,0.3c0,0,0,0-0.1,0
		c-0.1,0.1-0.2,0-0.3-0.1c0,0.1,0,0.1,0,0.2l-0.7,0l0-0.1l0-0.1l0-0.1l0-0.1l0-0.1l0-0.3l0-0.2c0-0.2,0-0.4,0.1-0.5l0-0.3l0-0.1
		l0-0.1l0-0.1l0-0.1l0-0.1l0.1-0.3l0-0.1l0-0.1l0-0.3c0-0.2,0.1-0.4,0.1-0.5l0-0.3c0-0.1,0-0.3,0-0.4L11.6,42.6L11.6,42.6z
		 M14.3,42.6l0.1,0.1l0,0.1l0.1,0.2l0,0.1l0.1,0.3l0,0.1l0,0.1l0,0.1l0,0.1l0,0.1l0,0.1l0,0.1l0,0.1l0,0.6c0,0-0.1,0.1-0.1,0.1
		l-0.1,0.1l-0.1,0.1c-0.1,0.1-0.3-0.1-0.5,0l-0.1,0.1L13.9,45l-0.1,0l-0.1,0.1l-0.1,0.1l0,0.1l0,0.1l0,0.1c-0.1,0.2,0,0.4,0,0.5
		c0.1,0,0.1,0.1,0.1,0.1l0.2,0.2l0.1,0.1c0,0.1,0.2,0.2,0.2,0.2l0.1,0l0.1,0c0.1,0,0.3-0.1,0.4,0l0.1,0l0.2,0.1l0.3,0l0.2,0.1h-1.9
		c0-0.1-0.1-0.1-0.1-0.1l-0.1,0l-0.1-0.1L13.1,46l0-0.1l0-0.1c-0.1-0.2-0.1-0.4,0-0.6l0-0.2l0-0.1l0-0.1l0.1-0.1l0.1-0.1l0.1,0
		l0.1,0l0.1,0l0.1-0.1l0.1,0l0.1,0l0.1,0l0.1,0c0.1-0.1,0.1-0.1,0.2-0.1l0-0.1l0-0.3l0-0.1l0-0.1l0-0.1l0-0.1l0-0.1l0-0.1L14,43.2
		l0-0.1l0-0.1l0-0.1l-0.1-0.1l0-0.1l-0.1-0.1l0,0H14.3L14.3,42.6z M21.5,42.6L21.5,42.6l0.1,0.1l0.1,0l0.1,0l0.2,0.1l0.1,0l0.1,0
		l0.1,0l0.2,0l0.1,0l0.2,0l0.1,0l0.1,0l0.1,0l0.1,0l0.1,0l0.1,0l0.1,0l0.1,0l0.1,0l0.1,0l0.1,0.1l0.1,0l0,0.1l0.1,0l0.1,0.1l0.1,0
		l0.1,0l0.1,0l0.1,0l0,0.1l0.1,0l0.1,0.1l0.1,0l0.2,0.1l0.1,0l0.1,0l0.1,0c0.1,0.1,0.5,0.2,0.7,0.1c0.1,0,0.1-0.2,0.2-0.3l0-0.1
		l0-0.1l0-0.1l0.1-0.1l0-0.1l0-0.1l0-0.1l0-0.1l0-0.1l0.1-0.1l0.1-0.1l0.1,0l0.1-0.1l0.1,0l0.1,0h1.8l0,0l0.1,0.1l0,0.1l0,0.1l0,0.1
		l0,0.1l0,0.1l0,0.1c0.1,0.1,0.1,0.2,0.1,0.3c0,0-0.1,0-0.1,0c0,0-0.1,0-0.1-0.1l-0.1-0.1l0-0.1l-0.1-0.1l0-0.1l-0.1,0h-0.1l-0.2,0
		l-0.1,0l-0.1,0L28,43l-0.1,0l-0.1,0c-0.1-0.1-0.2,0-0.3,0c-0.2,0.1-0.4-0.1-0.4,0.1l0.2,0.1h0.1l0.1,0.1l0.1,0l0.4,0.1l0.1,0.1
		l0.2,0.1l0.3,0.1l0.1,0l0.1,0.1l0.1,0l0.1,0l0.1,0l0.1,0.1l0.2,0.1l0.1,0l0.1,0.1l0.1,0l0.1,0.1l0.1,0.1l0.1,0l0.1,0.1l0.1,0l0.1,0
		l0.2,0.1l0.1,0l0.1,0l0.1,0l0.1,0l0.1,0l0.1,0l0.1,0.1l0.1,0l0.1,0l0.1,0l0.1,0l0.1,0l0.1,0l0.1,0l0.1,0l0.1,0l0.1,0l0.1,0l0.1,0
		l0.1,0l0.1,0l0.1,0l0.1,0l0.1,0l0.1,0l0.1,0l0.1,0l0.1,0l0.1,0l0.2,0l0.3,0.1l0.2,0.1l0.2,0c0.3,0.1,0.7,0.1,1,0.2h0.2l0.1,0l0.2,0
		l0.3,0l0.1,0l0.2,0l0.4,0c0.1,0.1,0.4,0,0.5,0l0.4,0l0.5,0l0.3,0l0.4-0.1l0.2,0l0.1,0l0.2,0l0.1,0l0.1,0l0.1,0l0.1,0l0.4,0l0.2,0
		l0.1,0l0.1,0l0.6-0.1l0.1,0l0.1,0l0.2,0l0.1,0l0.1,0l0.2,0l0.1,0l0.1,0l0.3,0l0.1,0l0.1,0l0.1,0l0.3,0c0.2,0,0.7-0.1,0.8,0h0.1
		l0.1,0l0.2,0c0.1,0,0.2,0,0.2,0.1l0.1,0l0,0.1l0.1,0.1l-0.1,0c-0.1-0.1-0.6-0.2-0.7,0l0,0.1l0.1,0.1l0.1,0l0.1,0.1l0.1,0.1l0,0.1
		l0.1,0.1l0.1,0.1l0,0.1l0,0.1l0.1,0.1l0.1,0.1l0.1,0l0.1,0.1l0.1,0l0.1,0c0,0,0,0,0,0l-2.5,0l-0.2-0.1c-0.3-0.1-0.7-0.2-1.1-0.3
		h-0.2l-0.4,0l-0.3,0l-0.1,0l-0.1,0l-0.1,0l-0.1,0l-0.2,0l-0.1,0l-0.1,0l-0.1,0l-0.1,0l-0.5,0l-0.1,0l-0.1,0l-0.1,0
		c-0.1,0-0.1,0-0.1,0l-0.2,0l-0.2,0l-0.3,0l-0.1,0l-0.8,0c-0.2,0.1-0.6,0-0.8,0l-0.2,0l-0.3,0l-0.1,0l-0.1,0l-0.4-0.1l-0.2,0l-0.1,0
		l-0.1,0l-0.3,0l-0.1,0l-0.2-0.1l-0.3,0l-0.1,0l-0.1,0l-0.1,0l-0.1,0l-0.1,0l-0.1,0l-0.1,0l-0.1,0l-0.1,0l-0.1,0L32,46l-0.3-0.1
		l-0.1,0l-0.2-0.1l-0.1,0l-0.1,0l-0.1,0l-0.1,0l-0.1,0l-0.1,0l-0.1,0l-0.1,0l-0.1,0l-0.1,0l-0.1,0l-0.1,0l-0.1-0.1l-0.1,0l-0.1-0.1
		l-0.1-0.1L30,45.2l-0.1-0.1l-0.1-0.1L29.6,45l-0.1-0.1l-0.1,0l-0.1-0.1l-0.1,0l-0.1,0L29,44.7l-0.1,0l-0.1-0.1l-0.1,0l-0.1,0
		l-0.1-0.1l-0.1,0l-0.1,0l-0.1,0l-0.1,0l-0.1,0l-0.3-0.1L27.6,44l-0.1,0l-0.1,0l-0.1,0l-0.3-0.1c-0.2-0.1-0.4-0.1-0.6,0l0,0.1l0,0.1
		l0,0.1l0,0.1l0,0.1l0,0.1l-0.1,0.1l0,0.1l-0.1,0.1l-0.1,0l-0.2,0.1l-0.1,0l-0.4,0l-0.1,0l-0.1,0l-0.2,0l-0.1,0l-0.1-0.1l-0.1,0
		l-0.1-0.1l-0.1,0l-0.1,0l-0.1-0.1l-0.1-0.1l-0.1,0l-0.1-0.1L23.8,44L23.6,44l-0.1,0l-0.1,0l-0.1-0.1l-0.1,0l-0.4-0.1l-0.1,0l-0.1,0
		l-0.2-0.1l-0.2,0l-0.1,0L22,43.4l-0.1,0l-0.1,0l-0.4-0.1l-0.1,0l-0.1,0l-0.1,0L21,43.1c-0.1,0-0.1,0-0.2-0.1l-0.1,0l-0.1,0l-0.1,0
		l-0.1,0l-0.1-0.1l-0.1,0l-0.1,0l-0.1-0.1l-0.1,0l0,0H21.5L21.5,42.6z M56.6,42.6l0,0.3l0,0.1l0,0.1l0,0.1l0,0.1l0,0.1l0,0.1l0,0.1
		l0,0.1l0,0.1l0,0.1l0,0.1l0,0.1l0,0.3c0.1,0.2,0.1,0.6,0.2,0.8l0,0.3l0,0.2c0,0.2,0,0.4-0.1,0.6l0,0.1l0,0.3l0,0.1l0,0.1l0,0.1l0,0
		h-0.6l0-0.1l0-0.5c0.1-0.2,0.1-0.6,0-0.8l0-0.2l0-0.2l0-0.4l0-0.1l0-0.1l0-0.1l0-0.1l0-0.1l0-0.1l0-0.1l0-0.1l0-0.1l0-0.1
		c-0.1-0.2-0.1-0.4-0.2-0.5c0-0.1,0-0.3,0-0.4l0-0.1c0,0,0,0,0,0L56.6,42.6L56.6,42.6z M60,42.6L60,42.6L60,42.6l0.1,0.2l0.1,0.1
		l0.1,0.1l0.1,0.1l0.1,0.1l0.1,0.1l0.1,0.1l0.1,0.1l0.1,0.1l0.2,0.2l0.1,0.1l0.1,0l0.1,0.1l0.1,0.2l0.1,0.1l0,0.1l0,0.1l0,0.1l0,0.1
		l0.1,0.1l0,0.1l0,0.1l0,0.1l0.1,0.3l0,0.1L62,46l0.1,0l0-0.1l0-0.1c0.1-0.1,0.1-0.1,0.1-0.2l0-0.1l0-0.4c0-0.1,0-0.1,0-0.1
		c0-0.1,0-0.3,0-0.4l0-0.1l0-0.1l0-0.1l0-0.1l0-0.1l0-0.1l0-0.1l0-0.1l0-0.1l0-0.1l0-0.1l-0.1-0.1l0-0.1l-0.1-0.1l0-0.1l0-0.1l0-0.1
		l-0.1-0.1l-0.1-0.1L61.4,43l-0.1-0.1l0-0.1l0-0.1l0-0.1l0,0h0.3l0,0l0,0.1l0.1,0.1l0.1,0.2l0.1,0.1l0.1,0l0.1,0.1l0.1,0.1l0.1,0.1
		l0.1,0.1l0.1,0l0.1,0l0.2,0.2l0.1,0l0,0.1l0.2,0.2l0.1,0.1l0,0.1l0.1,0.1l0,0.1l0,0.1l0,0.1l0.1,0.1l0,0.1l0,0.1l0,0.1l0,0.1l0,0.1
		l0,0.1l0,0.1l0,0.1l0,0.1l0,0.1l0,0.2l0,0.1l0,0.1l0,0.1c0.1,0.2,0,0.5,0.1,0.6l0.1,0l0-0.1l0.2-0.4l0-0.2c0.1-0.2,0-0.5,0-0.7
		l0-0.2l0-0.1l0-0.1l0-0.1l0-0.1l0-0.1l0-0.1l0-0.1l-0.1-0.1l0-0.1l0-0.1l-0.1-0.1l0-0.1l-0.1-0.1l-0.1-0.1l-0.1-0.1l-0.1-0.1
		l-0.1-0.1l0-0.1l0-0.1l0-0.1l0-0.1l0-0.1l-0.1-0.1l-0.1-0.1l-0.1-0.1h0.4l0.1,0.1l0,0.1l0,0.1l0.1,0.1l0.1,0.1l0.1,0.1l0,0.1l0,0.1
		l0.1,0.1l0.1,0.1l0.1,0.1l0.1,0.1l0.1,0.1l0,0.1l0.2,0.2l0.2,0.2l0.1,0.1l0,0.1l0.1,0l0,0.1l0,0.1l0,0.1l0,0.1l0,0.1l0,0.1l0,0.1
		c0,0,0,0.1,0.1,0.1h0.1c0,0,0-0.1,0.1-0.1c0-0.7-0.2-1.2-0.5-1.6l-0.1-0.1l-0.1,0l0-0.1l0-0.1l-0.1-0.1l-0.1-0.1l0-0.1l0-0.1l0,0
		h0.3l0,0l0.1,0.1l0,0.1l0.1,0.1l0.1,0.1l0.1,0.1l0.3,0.3l0.1,0.1l0,0.1l0,0.1l0,0.1l0.1,0l0.1,0.1l0,0.1l0,0.1l0,0.1l0.1,0.1l0,0.1
		l0,0.1l0,0.1l0.1,0.1l0,0.1l0,0.1l0.2,0.7l0,0.4l0,0.5c0,0.2-0.1,0.3-0.1,0.5l-0.5,0l0,0l0-0.1l0-0.1l0-0.2c0.1-0.4,0-0.8-0.1-1.1
		c-0.1,0.1-0.1,0.2-0.1,0.3l0,0.1l0,0.1l0,0.1l0,0.1l0,0.1l0,0.1l0,0.1l0,0.1l0,0.1L65,46.2l0,0.1l0,0.1c-0.1,0.1-0.1,0.2-0.2,0.2
		l-0.1,0c0,0-0.1-0.1-0.1-0.1l0-0.5c0-0.1-0.1-0.2-0.1-0.3l-0.1,0l-0.1,0.5l0,0.1l0,0.1l0,0.1l0,0.1l-0.1,0.1c0,0,0,0,0,0l-1,0
		l0-0.2c0-0.1,0.1-0.2,0.1-0.4c0-0.1,0-0.2,0-0.3l0-0.1l-0.1-0.4h-0.1c-0.1,0.1,0,0.3-0.1,0.4l-0.1,0.4l0,0.1l0,0.1l0,0.1l-0.1,0.1
		l0,0.1l-0.1,0l0,0h-2.2c0-0.1,0-0.2,0-0.2c0.1,0,0.1-0.1,0.2-0.1c0.1,0.1,0.2,0.2,0.4,0.2l0.1,0l0.1,0l0.1,0l0.1,0l0-0.1l0.1-0.1
		l0-0.1l0-0.1l0-0.1l0-0.2c0.1-0.4-0.1-0.8-0.2-1l-0.1-0.2l0-0.1l0-0.1l-0.1,0L61,44.4c-0.1-0.1-0.1-0.2-0.2-0.3
		c-0.2-0.1-0.3-0.3-0.5-0.4l-0.2-0.2l0-0.1l0-0.1l-0.1-0.1l0-0.1l0-0.1l-0.1-0.1l0-0.1l-0.1-0.1l-0.1-0.1l0-0.1l0-0.1l0,0H60
		L60,42.6z M67.6,42.6L67.6,42.6l0.1,0.1l0.1,0c0.1,0,0.3,0,0.4,0l0-0.1h0.9l0,0l0,0.1l-0.1,0l0,0.1l-0.1,0.1l-0.2,0.3l-0.1,0
		l-0.1,0l-0.1,0l-0.1,0l-0.3,0l-0.3,0l-0.1,0l-0.5-0.2c-0.2-0.1-0.3-0.2-0.4-0.2c0,0.2,0.1,0.2,0.1,0.3l0,0.1l0,0.1l0,0.1l0.1,0
		l0,0.1l0.1,0.1l0,0.1l0,0.1l0.1,0.1l0.3,0.8l0,0.2l0,0.2c0,0.1,0.1,0.3,0,0.5l-0.2,0.6l-0.1,0.1l0,0.1l0,0.1l0,0.1h-0.6l0,0l0-0.3
		l0-0.1l0-0.1c0.1-0.2,0.1-0.5,0.1-0.7l0-0.4l0-0.2l0-0.1l0-0.1l0-0.1l0-0.1l0-0.2l0-0.1l0-0.1l0-0.1l0-0.1l0-0.1l-0.1-0.1l0-0.1
		l0-0.1l0-0.1l0-0.1l0-0.1l0-0.1l0-0.1l0-0.1l0-0.1l-0.1-0.1l-0.1-0.1l-0.1-0.1l0,0H67.6L67.6,42.6z M45,46.7L45,46.7
		c0.1-0.1,0.3,0,0.4,0l0.3,0l0-0.1c0.1-0.1,0-0.2,0-0.3l-0.1-0.1l0-0.1l-0.1-0.1L45.5,46l-0.1-0.1l0-0.1c-0.1-0.1-0.1-0.1-0.2-0.2
		c0,0-0.1,0-0.1,0L45,45.5l-0.1,0l-0.1-0.1l-0.1-0.1l-0.1,0l-0.1,0l0-0.1l-0.1,0l-0.1-0.1l-0.1-0.1L44.3,45l-0.1,0l-0.1,0l-0.1,0
		l-0.1,0l-0.1,0l-0.2-0.1l-0.1,0l-0.1,0l-0.1,0l-0.2,0l-0.1,0l-0.1,0l-0.1,0l-0.1,0l-0.2-0.1l-0.1,0l-0.1,0l-0.9,0l0-0.1
		c0.1,0,0.2,0,0.3,0l0.3,0c0,0,0.1,0,0.2,0l0.1,0l0.1,0l0.1,0l0.1,0l0.1,0l0.1,0l0.1,0l0.1,0l0.1,0l0.1,0l0.1,0l0.1,0l0.1,0l0.1,0
		l0.1,0l0.1,0l0.1,0l0.1,0l0.1,0l0.1,0l0.1,0.1l0.2,0.1l0.1,0.1l0.1,0l0.1,0l0.1,0l0.1,0l0.1,0l0.1,0.1l0.1,0l0.1,0.1l0.1,0.1
		l0.2,0.2c0.1,0.1,0.1,0.1,0.1,0.1c0,0,0,0.1,0,0.1l0.1,0.1l0,0.1l0.1,0.1l0.1,0.1l0.1,0.1l0,0.1l0,0.1l0,0.1H45L45,46.7z"/>
	<path fill-rule="evenodd" clip-rule="evenodd" d="M10.2,38.7C10.2,38.7,10.2,38.7,10.2,38.7l0,0.3l0,0.1l0,0.1l0,0.1l0,0.1l0,0.3
		l0,0.2l0,0.1l0,0.2l-0.1,0.5l-0.1,0.4l0,0.1l0,0.1l-0.1,0.3l0,0.1l0,0.1l0,0.1l-0.1,0.2l0,0.1l-0.1,0.2l0,0.1l0,0.1l-0.1,0.1l0,0.1
		l0,0H8.4l0,0l-0.1-0.1l-0.2-0.1L8,42.4l-0.1-0.1l-0.1,0l-0.1,0l-0.1,0l-0.1,0l-0.1,0l0-0.1l-0.1,0L7.4,42l-0.2-0.1
		C7.1,41.8,7,41.8,7,41.7l-0.1-0.1l-0.2-0.2l-0.3-0.1C6.2,41.3,6.1,41.1,6,41l-0.1,0l0-0.1l0-0.1l0-0.1l0-0.3c0,0,0,0,0-0.1
		c0-0.1,0.1-0.3,0-0.4l0-0.1l0-0.1c-0.1-0.2,0-0.4,0-0.6l0-0.4l0-0.1H10.2L10.2,38.7z M11.5,38.7L11.5,38.7l0,0.2l0,0.3l0,1l0,0.4
		l0,0.3c0.1,0.1,0,0.4,0,0.5l0,0.7c0,0.1,0,0.2,0,0.2l0,0.4h-0.4c0-0.1,0-0.1,0-0.2l0-0.2l0-0.3c0,0,0-0.1,0-0.1l0-0.3l0-0.1l0-0.3
		c0-0.3,0-0.6,0-0.8l0-0.4l0-0.3c0-0.1,0-0.3,0-0.4l0-0.2l0-0.2l0-0.2H11.5L11.5,38.7z M14.2,38.7L14.2,38.7L14,38.8L14,38.8
		l-0.1,0.1l0,0.1l0,0.3l0,0.1l0,0.1l0,0.1l0,0.3l0,0.3l0,0.3l0,0.5l0,0.1l0,0.1l0,0.1l0,0.2l0,0.2l0,0.1L14,42l0.1,0.2l0.1,0.1
		l0,0.1l0.1,0.3h-0.6l0,0l0-0.1l0-0.1l-0.1-0.2l0-0.1l-0.1-0.3l0-0.1l0-0.1l0-0.1l0-0.2l0-0.2l0-0.2l0-0.1l0-0.3l0-0.5l0-0.1l-0.1,0
		L13,40.3c-0.1,0.1,0,0.3,0,0.3c0,0-0.1,0-0.1,0l0-0.3c-0.1-0.1,0-0.3,0-0.4l0-0.1l0.3-1l0-0.1H14.2L14.2,38.7z M16.3,38.7l0.2,0.2
		l0.1,0l0.1,0.1l0.1,0.1l0.1,0.1l0.1,0l0.2,0.1l0.1,0l0,0.1l0.1,0.1l0.1,0.1l0.1,0.1l0.1,0.1l0,0.1l0.1,0.1l0.3,0.3l0.1,0.1l0.1,0.2
		l0.1,0.1l0.1,0.1l0.1,0.1l0.3,0.2l0.1,0.1l0.1,0l0.1,0l0.1,0l0.1,0l0.1,0.1l0,0.1l0.1,0l0.1,0l0.1,0l0.1,0l0,0.1l0.1,0l0.1,0.1
		l0.1,0l0.1,0.1l0.1,0l0,0.1l0.1,0l0.1,0l0.1,0.1l0.1,0l0.1,0l0.1,0l0.1,0l0.1,0l0.2,0.1l0.1,0l0.1,0l0.1,0l0.1,0l0.1,0l0.1,0
		l0.1,0.1l0.1,0l0.1,0H20l0,0l-0.1,0l-0.1-0.1l-0.1,0l-0.1-0.1l-0.1-0.1l-0.1-0.1l-0.1,0l-0.1,0l-0.1,0l-0.1,0l-0.1,0L19,42
		l-0.1-0.1l0-0.1l-0.1-0.1l-0.1,0l-0.1,0l-0.3-0.3l-0.1-0.1L17.9,41l-0.1,0l-0.2-0.2l-0.1,0l0-0.1c-0.1,0,0,0-0.1-0.1l-0.2-0.1
		l0-0.1l-0.1,0L17,40.2l-0.1,0l-0.1-0.1L16.8,40l-0.1-0.1l-0.1,0l-0.1-0.1l-0.3-0.3l-0.2-0.2l-0.1-0.1L16,39.2L15.9,39l-0.1,0
		l-0.1,0l-0.1-0.1l0-0.1l-0.1,0l-0.1,0l-0.1,0l-0.1,0H16.3L16.3,38.7z M56,38.7L56,38.7l0,0.1l0.1,0.2l0,0.1l0,0.1l0,0.1l0,0.1
		l0,0.2l0.1,0.4l0,0.1l0,0.1l0,0.1l0,0.2c0.1,0.2,0,0.5,0.1,0.7l0,0.2l0,0.2l0,0.6l0,0.4H56c0.1-0.2,0-0.4,0-0.6l0-0.2
		c-0.1-0.3,0-0.6-0.1-0.9l0-0.2l0-0.3l0-0.1l0-0.1l0-0.1l0-0.2l0-0.1l-0.1-0.2l0-0.1l0-0.1l0-0.1l0-0.1l0-0.1l0-0.1l-0.1-0.2l0-0.1
		l0-0.1H56L56,38.7z M59.7,38.7l-0.1,0.1l-0.1,0.1l0,0.1l0,0.1l0,0.3l0,0.1l0,0.1l0,0.7c0,0.1-0.1,0.3,0,0.4l0,0.2l0,0.2l0,0.4
		l0,0.1l0,0.1l0.1,0.2l0,0.1l0,0.1l0,0.1l0,0.1l0,0.1l0.1,0.1l0,0.1l0.1,0.1l0,0.1l0,0.1h-0.6l0,0l-0.1-0.2l0-0.1l0-0.1L59.2,42
		l-0.1-0.2L59,41.5l0-0.1l0-0.1l0-0.4c0-0.2,0-0.7,0-0.8l0-0.2l0-0.1l0-0.1l0-0.1l0-0.1l0-0.1l0-0.1l0.1-0.3l0-0.1l0-0.1l0-0.1H59.7
		L59.7,38.7z M63.9,38.7c0,0.3-0.1,0.6-0.2,0.8l0,0.3c-0.1,0.3-0.2,0.6-0.1,0.9l0,0.1l0,0.3l0,0.1l0,0.1l0,0.1l0.2,0.5l0,0.1l0,0.1
		l0.1,0.1l0,0.1l0.1,0l0,0.1l0,0.1l0,0.1l0,0.1H64l0-0.1l-0.1,0l0-0.1l0-0.1l0-0.1l-0.1-0.1l0-0.1l0-0.1l0-0.1l-0.1-0.2l0-0.1
		l-0.1-0.4l0-0.2l0-0.4c0-0.1-0.1-0.2,0-0.4l0-0.2l0-0.1l0-0.1l0-0.1l0-0.1l0-0.1l0-0.1l0-0.1l0-0.2l0-0.1l0-0.1l0-0.1l0-0.1l0-0.3
		H63.9L63.9,38.7z M65.9,38.7l0,0.4l0,0.1l0,0.6c-0.1,0.1,0,0.6,0,0.7l0,0.2l0,0.1l0,0.1l0,0.1l0,0.1l0,0.1l0,0.1l0,0.1l0,0.1l0,0.1
		l0,0.1l0,0.1l0,0.1l0.1,0.1l0.1,0.1l0.2,0.2l0.1,0.1l0.1,0.1l0.1,0.1l0.1,0l0.1,0l0.1,0.1l0.1,0l0.1,0.1l0.1,0l0.1,0.1l0.1,0l0.1,0
		h-1.9l0-0.1l0-0.1l0-0.1l0-0.1l0-0.1l0-0.1l-0.2-0.5l0-0.1l0-0.1l0-0.1l-0.1-0.3l0-0.1l0-0.2c-0.1-0.1,0-0.4,0-0.5l0-0.3l0-0.1
		l0-0.1l0-0.1c0,0,0-0.1,0-0.2l0-0.1l0-0.1l0.1-0.3l0-0.1l0-0.1l0-0.1l0-0.1H65.9L65.9,38.7z M67.1,38.7l0,0.2l0,0.1l0,0.1l0,0.1
		l0,0.1l0,0.1l0,0.2c0,0.2,0,0.4,0,0.5l0.1,0l0-0.1l0-0.1l0.1-0.1l0-0.1l0-0.1l0-0.1l0-0.1l0-0.1l0-0.1l0.1-0.2l0.1-0.2l0,0h0.5
		l-0.1,0.2l0,0.1l-0.1,0.1l0,0.1l0,0.1l0,0.1l0,0.1l0,0.1L67.5,40l0,0.1l0,0.1l0,0.1l0,0.1l0,0.1l0,0.1c-0.1,0.2,0,0.4,0,0.5l0,0.1
		l0,0.1l0,0.1l0,0.1l0,0.1l0.1,0.1l0.1,0.1l0,0.1l0,0.1l0.1,0.1l0.1,0l0,0.1l0.1,0l0.1,0l0.2,0.1c0.1,0,0.3,0,0.4,0l0.2-0.1l0.1-0.1
		l0-0.1l0.2-0.2c0.1,0,0.1,0,0.2,0l0,0.1c0.1,0.1,0,0.3,0,0.3l0,0.2l0,0.1l0,0.1l-0.1,0.1l0,0.1l0,0.1l0,0h-0.9l0,0l-0.1,0l-0.1,0
		l-0.1,0l-0.1-0.1l-0.1,0l-0.1-0.1l0-0.1l-0.2-0.2l-0.1-0.1L67.2,42l-0.1-0.1l0-0.1l0-0.1l0-0.1L67,41.5l-0.1-0.2l-0.1-0.2l-0.1-0.1
		l0-0.1l0-0.1l0-0.1l0-0.1l0-0.2l0-0.7l0-0.4l0-0.1l0-0.1l0-0.1l0-0.1l0-0.1l0-0.1l0,0H67.1L67.1,38.7z M26.8,42.6L26.8,42.6
		l0.3-0.1l0.1,0l0-0.1l0.1,0l0.1-0.1l0.1-0.1l0-0.1l0-0.1l0-0.1l0-0.1l0.1,0l0.1-0.1l0.3-0.4l0.2-0.3l0.1-0.1l0.1-0.1l0.1,0l0.1,0
		l0.1-0.1l0.1-0.1c0.1,0,0.2,0,0.2,0l0,0.1l-0.1,0l-0.3,0.2l0,0.1l-0.1,0.2l0,0.1l0,0.1l0,0.1l0,0.1l0,0.3l0,0.2l0,0.1l0,0.1l0,0.1
		l0,0.1H26.8L26.8,42.6z M61.2,42.6L61.2,42.6l-0.1-0.2L61,42.4l0-0.1l0-0.1l0-0.1L60.8,42l0-0.1l0-0.1l-0.1-0.2l0-0.1l0-0.1l0-0.1
		l0-0.1c-0.1-0.2-0.1-0.4-0.1-0.7l0-0.3l0.1-0.2l0.1,0c0,0.1,0,0.2,0,0.3l0,0.4c0,0.1,0.1,0.3,0.1,0.4l0,0.3l0.1,0.1l0.1,0.1l0,0.1
		l0.1,0.3l0,0.1l0,0.1l0,0.1l0.1,0l0,0.1l0.1,0.1l0.1,0.1l0,0H61.2L61.2,42.6z M62.8,42.6l-0.2-0.2l-0.1-0.1l-0.1-0.1l0-0.1l0-0.1
		l0-0.1l0-0.1l0-0.1l0-0.1l0-0.1l0-0.1l0-0.1L62,41.4l0-0.1c-0.1-0.2-0.2-0.6-0.1-0.9c0,0,0.1,0,0.1,0l0,0.4l0.2,0.5l0.1,0.2l0,0.1
		l0,0.1l0.1,0.1l0,0.1l0,0.1l0.1,0l0.1,0.1l0.1,0.1l0.1,0.1l0,0.1l0.2,0.2l0,0H62.8L62.8,42.6z"/>
	<path fill-rule="evenodd" clip-rule="evenodd" d="M11.5,34.3L11.5,34.3l-0.1,0.2l-0.1,0.1l0,0.1l0,0.1l0,0.1l0,0.1L11.1,35L11,35.2
		l0,0.1l0,0.1l0,0.1l0,0.1l0,0.1l-0.2,0.2l-0.1,0.1l-0.1,0l-0.1,0.1l-0.1,0.1l-0.1,0l-0.1,0l0,0.1c-0.1,0-0.2,0.1-0.3,0.1l-0.1,0
		l-0.1-0.2l0-0.1c-0.1-0.1-0.1-0.1-0.1-0.2c-0.1,0-0.1,0-0.1-0.1c-0.1-0.1-0.2-0.1-0.3-0.1l-0.1,0l-0.1,0.1l-0.1,0l0,0.1l0,0.1
		l0,0.1l0,0.1l0,0.1l0,0.1l0,0.1l0,0.1l0,0.3l0.1,0.1l0.1,0l0.1,0l0.1,0l0.1,0l0.1,0l0.1,0.1l0,0.1l0,0.1l0.1,0.1l0,0.1l0.1,0.2
		l0.1,0l0.1,0l0.1,0l0,0.1l0.2,0.2l0,0.1l0.1,0.2l0,0.1c0.1,0.2,0.1,0.4,0.1,0.6l-4.4,0l0-0.3v-0.1l0-0.3c0-0.2,0-0.4,0-0.5
		c0-0.2,0-0.4-0.1-0.5V37l-0.1-0.1l0-0.1l0-0.1l0-0.1l0-0.1l0-0.3c0.1-0.2,0.2-0.3,0.3-0.6l0-0.1l0-0.2L5.9,35L6,35l0.1-0.1l0.1-0.1
		l0.1-0.1c0-0.1,0.1-0.1,0.1-0.2c0.1-0.1,0.1-0.1,0.2-0.1l0.1,0l0,0H11.5L11.5,34.3z M19.6,34.3L19.6,34.3l0,0.1l0,0.2l0,0.2
		c-0.1,0.2,0,0.4,0,0.7l0,0.3l0,0.2l0,0.1c0,0,0.1,0.1,0.1,0.1l0.1,0l0.1,0l0.1,0l0.1,0l0.1,0l0.1,0l0.1,0.1l0.1,0l0.1,0l0.2,0
		l0-0.1l0-0.1l0.1-0.7l0-0.1l0-0.1l0-0.1l0-0.1l0-0.1l0.1-0.2l0.1-0.1l0.1-0.1l0-0.1l0-0.1l0-0.1l0-0.1l0-0.1l0-0.1l0-0.1l0-0.1l0,0
		h0.4l0,0.1l0,0.1l0,0.2l0,0.1l0,0.1l0,0.1l0,0.1l0,0.1l0,0.1l0,0.1l0,0.1l0,0.1l0,0.1l-0.1,0.3c-0.1,0.2-0.2,0.4-0.2,0.8l0.1,0.1
		h0.1l0.2,0l0.1,0l0.1,0l0.1,0l0.1,0l0.1,0L22,37l0.1,0l0.1,0.1l0.3,0.1l0.1,0l0,0.1l0.1,0.1l0.1,0.1l0.1,0l0.1,0l0.1,0.1l0.1,0
		l0.1,0l0.1,0.1l0.1,0l0.1,0.1l0.1,0l0.1,0l0.1,0l0.1,0l0.1,0c0,0,0.1,0,0.1,0.1l0,0.1c0,0-0.1,0.1-0.1,0.1c-0.1,0-0.2,0-0.2,0
		l-0.2,0l-0.2-0.1L23.2,38l-0.1,0l-0.1,0L23,37.9l-0.1-0.1l-0.1,0l-0.1,0l0-0.1l-0.2-0.2l-0.1-0.1l-0.1,0l-0.1-0.1l-0.1,0l-0.1,0
		c-0.1,0-0.2-0.1-0.3-0.1l-0.1,0c0,0,0,0-0.1,0l0,0.1l0.3,0.3l0.1,0.1l0,0.1l0.4,0.4l0,0.1l0.1,0c0,0.1,0.1,0.2,0.1,0.2l-0.1,0
		l-0.1,0l-0.1-0.1l-0.1,0l-0.1-0.1l-0.1-0.1l0-0.1l0-0.1L21.9,38l-0.1,0l-0.1,0l-0.1-0.1l-0.1-0.1l0-0.1l-0.1,0l-0.1-0.1l-0.1,0
		l-0.1,0l-0.1,0l-0.1,0l-0.1-0.1l-0.1-0.1l-0.1,0l-0.1,0L20.5,37l-0.2-0.1l-0.1,0l-0.1,0l-0.1,0l-0.1,0l-0.1-0.1l-0.2-0.1l-0.1,0
		l-0.1,0l-0.1,0l-0.1-0.1l-0.2-0.1l-0.1,0l-0.1,0l-0.1,0l-0.1,0l-0.1,0c-0.1,0-0.3-0.1-0.4-0.1l-0.3,0l-0.3,0
		c-0.1,0-0.3-0.1-0.4-0.1l-0.4,0L16.5,36l-0.2,0c-0.1,0-0.2-0.1-0.3-0.1l-0.2,0l-0.1,0l-0.2-0.1l-0.1,0l-0.1,0l-0.1,0l-0.1,0l-0.1,0
		l-0.1,0l-0.1,0l-0.1,0l-0.1,0l-0.1,0l-0.4-0.1l-0.1,0l-0.1,0l-0.1,0l-0.3-0.1c-0.1,0-0.2-0.1-0.3,0l-0.1,0l-0.1,0L13,35.2l-0.1,0
		l0,0.1l-0.2,0.2l-0.1,0.1l0,0.1l-0.1,0.1l-0.1,0.1l0,0.1l0,0.1l0,0.1l-0.1,0.1l-0.1,0.1l-0.1,0l0,0.1l-0.1,0.1l-0.1,0.1l-0.1,0.1
		l-0.1,0l-0.1,0.1l-0.1,0.1l-0.1,0.1l0,0.1l0,0.1l0,0.1c-0.1,0.2,0,0.4,0,0.7c0,0.1,0,0.3,0,0.4l0,0.1l0,0.1l0,0.1l0,0.1l0,0.1H11
		l0,0l0-0.1l0-0.1l0-0.1l0-0.1l0-0.1l0-0.4l0-0.2l0-0.3l0.1-0.2l0-0.1l0.1-0.1l0-0.1l0-0.1l0-0.1l0.1-0.1l0.2-0.2l0.1-0.1l0.1-0.1
		l0.1-0.1l0.1,0l0.1,0l0.1-0.1l0.1-0.1l0.1-0.1l0-0.1l0-0.1l0-0.1l0.1-0.2l0-0.1l0.1-0.1l0-0.1l0-0.1l0-0.1l0.1-0.1l0.1,0l0.1,0
		l0.1,0l0-0.1l0.1,0c0.1-0.1,0.4-0.1,0.5,0l0.3,0l0.3,0l0.1,0.1l0.1,0l0.1,0.1l0.1,0l0.1,0.1l0.1,0l0.1,0l0.2,0.1l0.1,0l0.1,0
		l0.2,0.1l0.1,0l0.1,0l0.1,0l0.1,0l0.1,0l0.1,0l0.1,0l0.1,0l0.1,0l0.1,0l0.1,0l0.3,0.1l0.1,0l0.1,0l0.3,0l0.2,0
		c0.2,0.1,0.4,0.1,0.6,0.1l0-0.1c-0.1-0.1-0.2-0.2-0.3-0.3L17,35l-0.1-0.1l0-0.1l0-0.1l0-0.1l-0.1,0l-0.1-0.1l-0.1-0.1l-0.1-0.1l0,0
		H19.6L19.6,34.3z M52.7,34.3L52.7,34.3L52.7,34.3l0.1,0.1l0.1,0l0.1,0.1l0.1,0l0.1,0l0.1,0l0.1,0l0.1,0l0.1,0l0.1,0l0.1,0l0.1,0.1
		l0.1,0l0.3,0.1l0.1,0l0.1,0l0.1,0l0.1,0l0.1,0l0.1,0l0.1,0l0.2,0c0.1,0,0.2,0,0.3,0l0.2,0l0.1,0l0.1,0l0.1,0l0.1,0l0.1,0l0.1-0.1
		l0.1-0.1l0.1-0.1l0.1-0.1l0.1,0l0.1-0.1l0-0.1l0.2-0.3l0-0.1h0.6l0,0l0,0.1l0,0.1l0,0.1l0,0.1l0,0.1l0,0.1l0,0.1l0,0.1l-0.2,0.3
		l-0.1,0.1l-0.1,0l-0.1,0l-0.1,0.1l-0.1,0l-0.1,0l-0.1,0.1L56,35.6l-0.1,0l-0.1,0l-0.1,0l-0.1,0c-0.5,0.2-1.1,0-1.5-0.2l-0.1,0
		l-0.1,0l-0.1,0l-0.1,0l-0.1,0l-0.1,0l-0.1,0l-0.1,0l-0.1-0.1l-0.1,0l-0.1-0.1l-0.1,0L53,35.1L53,35l-0.1,0l-0.1,0l-0.1,0l-0.1,0
		l-0.1-0.1l-0.1,0l-0.1,0l-0.1,0l-0.1,0l-0.1,0l-0.1-0.1l-0.1-0.1L52,34.4l0,0H52.7L52.7,34.3z M60.9,34.3L60.9,34.3L60.9,34.3
		l0.1,0.1l0.1,0.1l0.1,0.2l0.1,0.1l0.1,0l0.1,0.1l0,0.1l0,0.1l0,0.1l0.1,0.2l0,0.1l-0.1,0c-0.1-0.1-0.1-0.2-0.2-0.3l-0.2-0.2
		L61.2,35l-0.1-0.1l-0.1,0l-0.1,0l-0.1-0.1l0-0.1l-0.1-0.1l-0.2-0.1c-0.1,0-0.3-0.1-0.4-0.1l-0.1,0l-0.1,0l-0.1,0l-0.1,0
		c-0.1,0.1-0.2,0.1-0.2,0.2l0.1,0.1l0.1,0l0.1,0l0.1,0l0.1,0l0.1,0l0.1,0l0.1,0l0.1,0l0.1,0l0.1,0.1l0.1,0l0.1,0l0.1,0.1l0,0.1
		l0.1,0.1l0.1,0.1l0,0.1L61,36l0,0.1l0,0.3l0,0.3l0,0.3l0,0.1l-0.1,0.1l0,0.1l0,0.1l0,0.1l0,0.1l0,0.1l0,0.1l-0.1,0.1l-0.1,0l0,0.1
		l0,0.1l0,0.1l-0.2,0.1L60,38.4l-0.1,0.1l-0.1,0.1l-0.1,0.1l0,0h-0.4l0.1-0.1l0-0.1l0-0.1l0.1-0.1l0-0.1l0.1,0l0.1-0.1l0-0.1
		l0.1-0.1c0.1-0.1,0.1-0.2,0.2-0.2c0-0.1,0-0.1,0.1-0.1l0.1-0.1l0-0.1l0.1,0l0-0.1l0-0.1l0.1-0.1l0-0.1l0-0.1l0-0.1l0-0.1l0.1-0.2
		l0-0.1c0-0.1,0-0.5,0-0.6l-0.1-0.1l0-0.1l0-0.1l-0.1-0.1l0-0.1l-0.1-0.1l-0.1,0h-0.1L60,35.5c-0.2-0.1-0.4-0.1-0.6-0.1l-0.1,0
		l-0.1,0l-0.1,0.1L59,35.8L59,35.8l-0.1,0.1l0,0.1l0,0.1l0,0.1l0,0.1l-0.1,0.1l-0.2,0.2l-0.1,0.1l-0.1,0.1l-0.1,0L58.2,37l-0.1,0
		L58,37l-0.1,0.1l-0.2,0.1l-0.1,0l-0.1,0l-0.2,0.1l-0.2,0.1l-0.1,0L57,37.5l-0.1,0l-0.1,0l-0.1,0l-0.3,0c-0.2,0.1-0.6,0-0.9,0
		c0,0,0,0.1,0,0.1c0.1,0,0,0,0,0.1l0.1,0.1l0,0.1l0,0.1l0,0.1l0,0.1l0,0.1l0,0.1l0.1,0.1l0,0.1l0,0.1h-0.6l-0.1-0.2L55,37.9
		l-0.1-0.1l-0.1-0.2l-0.1-0.2l0-0.1l-0.1-0.1l-0.1,0l-0.1-0.1c-0.1-0.1,0-0.2,0.1-0.2c0,0,0.3,0,0.4,0l0.1,0l0.2,0.1
		c0.4,0.1,1,0.2,1.5,0.1l0.2,0l0.2,0l0.1,0l0.1,0l0.1,0l0.2-0.1l0.1,0l0.1,0l0.1,0l0.1-0.1l0.1,0l0.1,0l0.1-0.1l0.1-0.1l0.2-0.2
		l0.1-0.1l0-0.1l0-0.1l0-0.1l0-0.1l0-0.1l0-0.1l0-0.1l0.1-0.2l0-0.1l0-0.1l0-0.1l0.1-0.2l0-0.1l0.1-0.2l0.1-0.1l0.1,0l0-0.1l0.1-0.1
		l0.1,0l0.1-0.1l0.1,0l0,0H60.9L60.9,34.3z M67.7,34.3l0,0.1l0,0.1l0,0.1l0,0.1l0.1,0.1L68,35l0,0.1l0,0.1l0,0.1l0.1,0.3l0.1,0.4
		l0,0.3l0,0.1l0,0.2c0,0.2,0,0.5-0.1,0.7l0,0.5l0,0.1l0,0.2l0,0.1l0,0.1l0,0.1l0,0.1l0,0.1l0,0.1l0,0.1l0,0.1l0,0.1l0,0.1h-0.5
		l0-0.1l0-0.1l0-0.1l0-0.1l0-0.1l0-0.1l0-0.1l0.1-0.3c0-0.1,0.1-0.2,0.1-0.3l0-0.3l0-0.2l0-0.3l0-0.1c0-0.3,0-0.5,0-0.8l0-0.1l0-0.1
		l0-0.1l-0.1-0.3l0-0.1L67.5,35l0-0.1l0-0.1l0-0.1l0-0.1l0-0.1l0-0.1l0-0.1l-0.1-0.1l0,0H67.7L67.7,34.3z M13.3,38.7L13.3,38.7
		l0.1-0.3l0.1-0.1l0.1,0l0.1,0l0-0.1l0.1,0l0.1,0l0.1,0l0.1,0l0.3,0c0.2-0.1,0.4-0.1,0.6,0l0.1,0l0.1,0l0.1,0l0.1,0l0.1,0l0.1,0
		l0.1,0.1l0.1,0.1l0.1,0l0.1,0.1l0.1,0l0.1,0l0.1,0.1l0.1,0.1l0.1,0.1l0.1,0.1h-1l-0.1,0l-0.1,0l-0.1,0l-0.3,0l-0.2,0l-0.2,0l-0.1,0
		l-0.1,0l-0.1,0H13.3L13.3,38.7z M63.7,38.7L63.7,38.7l0-0.4l0-0.3c0-0.1-0.1-0.2-0.1-0.4h0.1c0.1,0.1,0.1,0.3,0.1,0.4l0,0.1
		c0.1,0.2,0.1,0.4,0,0.6L63.7,38.7L63.7,38.7z M65.5,38.7L65.5,38.7l0-0.2c0-0.1,0-0.4,0-0.5l0-0.2l0-0.4c0-0.3,0-0.6-0.1-0.8l0-0.1
		l-0.1-0.2l0-0.1l0-0.1l0-0.1c0-0.1-0.1-0.2-0.1-0.3c0.1,0,0,0,0.1,0c0,0,0,0,0.1,0l0.1,0.1l0.1,0.1l0,0.1l0,0.1l0,0.1l0.1,0.1
		l0,0.1l0,0.1l0.1,0.2l0,0.1l0,0.1l0,0.1l0,0.3l0,0.1l0,0.1c0.1,0.2,0,0.4-0.1,0.5l0,0.3l0,0.2l0,0.2l0,0.1l0,0.1H65.5L65.5,38.7z
		 M66.8,38.7L66.8,38.7L66.8,38.7l0.1-0.2l0-0.1l0-0.1l0-0.1l0-0.2l0-0.1l0-0.2l0-0.9c-0.1-0.2-0.2-0.5-0.1-0.8l0.1,0.2l0,0.1l0,0.1
		l0,0.1l0,0.1l0,0.1l0,0.7l0,0.5l-0.2,0.6l0,0.1H66.8L66.8,38.7z"/>
	<path fill-rule="evenodd" clip-rule="evenodd" d="M19.4,30.7C19.4,30.7,19.4,30.7,19.4,30.7C19.5,30.7,19.5,30.7,19.4,30.7H20
		l0,0.5l0,0.2l0,0.1l0,0.1l0,0.5c0.1,0.1,0,0.4,0,0.5l0,0.3l0,0.1l0,0.1l0,0.1l0,0.1l0,0.1l0,0.1l0,0.1l-0.1,0.2l-0.1,0.3L19.8,34
		l0,0.1l0,0.1l0,0.1l0,0.1h-3.2l-0.2-0.2L16,33.9L16,33.8l-0.1-0.1l-0.1-0.1l0-0.1l0-0.1l0-0.1l0-0.1l-0.1-0.1l-0.1,0l0-0.1
		l-0.1-0.1l0-0.1l-0.1-0.1l0-0.1l0-0.1l-0.1-0.1l0-0.1l0-0.1l0-0.1l0-0.1c-0.1-0.1-0.1-0.1-0.1-0.2c-0.1,0-0.1-0.1-0.1-0.1l-0.1,0
		l-0.1,0L14.5,32l-0.1-0.1l-0.1,0l-0.1,0l-0.1,0l-0.1,0l-0.1,0l-0.1,0l-0.1,0c-0.1-0.1-0.3,0-0.3,0l-0.1,0l-0.1,0l-0.1,0l-0.1,0
		l-0.1,0L12.9,32L12.8,32l-0.2,0.2l-0.1,0.1l0,0.1l-0.1,0.1l0,0.1l-0.1,0.1l0,0.1l0,0.1l0,0.1l-0.1,0.1l0,0.1l0,0.1l0,0.1l0,0.1
		l-0.1,0.1l-0.1,0.2l-0.1,0.2L11.7,34l-0.1,0.2l0,0.1l0,0.1l0,0H6.6l0,0l0.1-0.1l0.1-0.1l0-0.1l0.2-0.2l0.1,0l0.2-0.2l0.2-0.1
		l0.1-0.1l0.1,0l0.1,0l0.1,0l0-0.1l0.1,0L8,33.2l0.1,0L8.2,33L8.3,33l0.1,0l0.1-0.1l0.1-0.1l0.2-0.1L9,32.3l0.2-0.2l0.1-0.1l0.1-0.1
		l0.1-0.1l0.1-0.1l0.1-0.1l0.1-0.1l0.1-0.1l0.2-0.2l0.1-0.1l0.1-0.1l0.1-0.1l0,0H19.4L19.4,30.7z M21.2,30.7l0,0.1l0,0.2l0,0.1
		l-0.1,0c-0.1-0.1,0-0.2-0.1-0.3l-0.1-0.1l0,0H21.2L21.2,30.7z M22.5,30.7L22.5,30.7L22.5,30.7l-0.1,0.2l0,0.1l0,0.1l-0.1,0.1l0,0.1
		l-0.1,0.3l-0.1,0.1l0,0.1l-0.1,0.4l0,0.1l0,0.1l0,0.1l0,0.1l0,0.3l0,0.1l0,0.1l0,0.5l0,0.2l0,0.2l0,0.3l0,0.1h-0.4l0-0.1l0-0.1
		l0-0.2l0-1l0-0.1l0-0.1l0-0.3l0.2-0.6l0-0.1l0-0.1l0-0.1l0.1-0.2l0.1-0.1l0.1-0.2l0-0.1l0-0.1l0-0.1l0,0H22.5L22.5,30.7z
		 M38.1,30.7L38.1,30.7l0.1,0.1l0.1,0.1l0.1,0.1l0.2,0.1l0.1,0l0.1,0l0.2,0l0.1,0l0.1,0l0.3,0.1l0.1,0l0.1,0l0.2,0.1l0.1,0l0.1,0
		l0.1,0l0.1,0l0.1,0l0.1,0l0.1,0l0.1,0l0.1,0l0.2,0.1l0.2,0c0.2,0.1,0.4,0.1,0.6,0.1l0.3,0c0.2,0.1,0.5,0.1,0.8,0.1l0.2,0l0.1,0
		l0.5,0c0.1,0,0.3,0.1,0.4,0l0.2,0c0.1,0,0.1,0,0.2,0c0.2,0,0.3,0,0.4,0l1,0c0.1,0,0.2,0,0.3,0l0.2,0l0.3,0l0.1,0l0.4,0l0.3,0l0.1,0
		l0.1,0l0.1,0l0.1,0l0.2,0l0.5,0.1l0.1,0l0.1,0.1l0.2,0l0.1,0l0.1,0l0.1,0l0.1,0.1l0.1,0l0.1,0l0.1,0l0.1,0.1l0.2,0.1l0.1,0l0.1,0
		l0.1,0l0.1,0l0.1,0l0.7,0.3l0,0.1l0.1,0l0.1,0l0.1,0l0.1,0.1l0,0.1l0.1,0l0,0.1l0.1,0l0.1,0l0.1,0l0.1,0l0.1,0l0.1,0l0.1,0l0,0.1
		l0.1,0l0.1,0.1l0.2,0.1l0.1,0l0.1,0l0.1,0.1l0,0h-0.7l0,0l-0.1,0l-0.1,0l-0.1,0l-0.1,0l-0.1-0.1l-0.1,0l-0.1,0l-0.1-0.1l-0.1-0.1
		l-0.1,0l-0.1-0.1l-0.1,0l-0.1,0l-0.1-0.1l-0.1,0l-0.1,0l-0.1-0.1l-0.1,0l-0.1-0.1l-0.1,0l-0.1,0l-0.1,0l-0.1,0l-0.1,0l-0.1,0
		L49.4,33L49.2,33l-0.1,0l-0.1,0l-0.1,0l-0.1,0l-0.1,0l-0.1,0l-0.1,0l-0.1,0l-0.3-0.1l-0.1,0l-0.1,0l-0.1,0l-0.1,0l-0.1,0l-0.1,0
		l-0.1,0l-0.1,0l-0.1,0l-0.1,0l-0.1,0l-0.1,0l-0.1,0c-0.1-0.1-0.3,0-0.4,0l-0.1,0l-0.3,0l-0.7,0l-0.3,0l-0.4,0l-0.7,0l-0.1,0l-0.1,0
		l-0.1,0l-0.1,0l-0.4,0l-0.3,0c-0.2,0-0.5,0-0.7,0l-0.2,0c-0.1,0-0.3-0.1-0.4-0.1l-0.2,0c-0.3-0.1-0.6-0.1-0.9-0.2l-0.2,0l-0.1,0
		l-0.1,0L40.2,32l-0.4-0.1l-0.1,0l-0.1,0l-0.1,0l-0.1,0l-0.1,0l-0.1,0l-0.1-0.1l-0.1,0l-0.1,0l-0.1-0.1l-0.1,0l-0.1,0l-0.1,0
		l-0.1-0.1l-0.1,0l-0.1,0l-0.2-0.1l-0.1,0l-0.1,0l-0.1-0.1l-0.1,0l-0.1,0L37.6,31l-0.1,0l-0.1,0l-0.1,0l-0.1,0l-0.1,0l-0.1,0H38.1
		L38.1,30.7z M55.3,30.7C55.3,30.7,55.3,30.7,55.3,30.7l0,0.2l0.1,0.4l0.1,0.1l0,0.1l0,0.1l0,0.1l0,0.1l0.1,0.1l0,0.1l0.1,0.1L56,32
		l0.1,0.1l0.3,0.3l0.2,0.2l0.1,0.1l0.1,0.1l0,0.1l0,0.1l0,0.1l0,0.1l0,0.1l0.1,0.4l0,0.1l0,0.1l0,0.1l0,0.3l0,0.2l0,0.1h-0.6l0-0.1
		l0-0.1l0-0.1l0-0.1l0-0.1c0-0.1,0-0.3,0-0.4l0-0.1l-0.1-0.3l-0.1-0.1l0-0.1l0-0.1l-0.1-0.1l-0.1-0.2l-0.3-0.2l-0.3-0.2l-0.1,0
		l-0.1-0.1L55.3,32l-0.1-0.1l0-0.1l0-0.1l0-0.1L55,31.5l0-0.1l-0.2-0.7H55.3L55.3,30.7z M67.1,30.7c0.1,0.2,0.1,0.3,0.1,0.6l0,0.3
		l0,0.6l0,0.1l0,0.1l0,0.1l0,0.1l0,0.1l0,0.1l0,0.1l0,0.2c0,0.1-0.1,0.3,0,0.4l0.1,0.3l0,0.1l0.2,0.2l0.1,0.1l0.1,0.1l0.1,0.1
		l0.1,0.1l0.1,0.1l0,0.1h-0.6l0,0l-0.1-0.1l-0.1-0.1l0-0.1l0-0.1l-0.1-0.1l0-0.1l-0.1-0.1l0-0.1l0-0.1c-0.1-0.1,0-0.3,0-0.4l0-0.4
		l0-0.1c0-0.1,0.1-0.2,0.1-0.3c0-0.1,0-0.3,0-0.5c0-0.1,0-0.4,0-0.4l0-0.2l0-0.1l0-0.1l0-0.1H67.1L67.1,30.7z M59.5,34.3L59.5,34.3
		l0.1-0.1l0.1-0.1l0.1,0c0.1,0,0.2,0,0.2,0l0.3,0l0.1,0l0.1,0l0.2,0.1l0,0H59.5L59.5,34.3z"/>
	<path fill-rule="evenodd" clip-rule="evenodd" d="M22.2,26.7l0,0.3l0,0.1l0,0.1l0,0.1l0,0.3L22,27.7L22,27.9l0,0.1l0,0.1l-0.1,0.1
		l0,0.1l0,0.1l0,0.1l-0.1,0.1l0,0.1l0,0.1l-0.1,0.1l0,0.1l0,0.1l0,0.1l-0.1,0.1l0,0.1l0,0.1l0,0.1l0,0.1l0,0.1l0,0.3l0,0.4l0,0.2
		l0,0.2l0,0.1h-0.3l0-0.1l0-0.5l0-0.7l0.1-0.2l0-0.1l0-0.1l0-0.2c0-0.1,0.1-0.3,0.1-0.4c-0.1,0-0.1,0-0.1,0l-0.1,0l-0.1,0.1l0,0.1
		l0,0.1l-0.1,0l-0.1,0.1l-0.1,0.1l0,0.1l0,0.1l0,0.1l0,0.1l0,0.1l0,0.1l0,0.1l-0.1,0.2l0,0.1l0,0.1l0,0.1l0,0.1l-0.1,0.2l0,0.2
		l0,0.2l0,0.3h-0.6c0,0,0,0,0-0.1c0.1-0.1,0-0.2,0-0.3l0-0.1l0-0.1l0-0.1l0-0.1l0.2-0.8l0.2-0.3l0-0.1l0-0.1l0-0.1l0.1,0l0-0.1
		l0-0.1l0.1-0.1l0.1-0.1l0.1-0.1l0.2-0.2l0.1-0.1l0.1-0.1l0.1,0l0.1-0.1l0.1-0.1l0-0.1l0.3-0.3l0-0.1l0-0.1l0-0.3H22.2L22.2,26.7z
		 M33.8,26.7L33.8,26.7l0,0.1c-0.1,0.1-0.1,0.3-0.2,0.3l0-0.1l0-0.1l0-0.1l0-0.1l0-0.1H33.8L33.8,26.7z M34.2,26.7L34.2,26.7
		l-0.1,0.1L34,27l0,0.1l0,0.1l0,0.1l0,0.1l0,0.1l0,0.1l-0.1,0.1l0,0.1l0,0.1l0,0.1l0,0.1L33.7,28l-0.1,0c0-0.1,0-0.1,0-0.1l0.1-0.1
		l0-0.1l0-0.1l0-0.1l0-0.1l0-0.1l0-0.1l0-0.1l0-0.1l0-0.1l0-0.1l0.1-0.1l0-0.1H34.2L34.2,26.7z M35.9,26.7l0.2,0.2l0.1,0l0.1,0
		l0.1,0.1l0.1,0l0.1,0.1l0,0.1l0.2,0.4l0,0.1l0.1,0.2l0,0.2l0,0.4c0,0.1,0,0.2,0,0.3c0,0,0.1,0,0.1,0l0.1-0.1l0.1-0.1l0-0.1l0-0.1
		l0-0.1l0-0.1l0-0.1l0-0.1c0-0.1,0.1-0.3,0.1-0.4l0-0.2l0-0.1l-0.1-0.1l0-0.1L37.1,27l0-0.1l-0.1-0.1l0-0.1h0.9c0,0.1,0,0.1,0,0.1
		l0,0.1l0,0.1c-0.1,0.1-0.1,0.2-0.1,0.3l0,0.1l0,0.1l0,0.1l0,0.2l0,0.1l0,0.1l0.1,0.1l0.1,0.1l0,0.1c0,0,0,0.1,0,0.2c0,0,0,0,0,0.1
		l-0.1,0l-0.1,0.1l-0.1,0.1l0,0.1l0,0.1L37.5,29l-0.1,0.1l0,0.1l-0.1,0l-0.1,0.1l0,0.1l0,0.1l0,0.1l-0.1,0.1L37,29.8l-0.1,0l0,0.1
		l0.1,0L37,30l0.1,0.1l0.1,0.1l0.1,0.1l0.1,0.1l0.1,0.1l0.1,0.1l0.1,0l0.1,0l0.1,0l0.1,0l0.1,0l0.1,0h-1l-0.1,0l-0.1,0l-0.1,0
		l-0.1,0l-0.1,0l-0.1,0l0-0.1l-0.1-0.1l-0.1,0l-0.1-0.1l-0.1,0l-0.1,0l-0.1,0l0-0.1L36,30l-0.1-0.1l-0.1-0.1l-0.1,0l-0.1-0.1
		l-0.1-0.1l-0.1-0.1l0-0.1l-0.1-0.1L35.1,29L35,28.9l-0.1-0.1c-0.1-0.1-0.2-0.3-0.2-0.5l0.1,0l0.3,0.4l0.1,0.1l0.2,0c0,0,0,0,0.1,0
		l0.1-0.1l0-0.1l0-0.1l0-0.1c0.1-0.1,0-0.3-0.1-0.4l0-0.1l0-0.1l0-0.1l-0.1-0.1l-0.1-0.1l-0.1-0.1L35,27.4l0-0.1l0-0.1l0-0.1
		L34.8,27l0-0.1c0,0,0-0.1,0-0.1h0.1c0,0,0.1,0.1,0.1,0.1l0,0.1l0,0.1l0,0.1l0.1,0.1l0.1,0.2l0.4,0.1l0.1,0.1l0.1,0.1l0,0.1l0,0.1
		c0.1,0.1,0.2,0.5,0.2,0.7l-0.1,0.4l-0.1,0.1l0,0.1c-0.1,0.1-0.1,0.1-0.1,0.2l0.1,0l0.1,0l0.1,0l0.1,0l0.1,0l0.1-0.1l0.1,0l0-0.1
		l0-0.1l0.2-0.4l0-0.2c0-0.1,0-0.4,0-0.5l0-0.1l-0.1-0.2l0-0.1l0-0.1l0-0.1l0-0.1l-0.1-0.1l-0.1-0.1l-0.1,0l-0.1,0l-0.1,0l-0.1-0.2
		l-0.2-0.1l0,0H35.9L35.9,26.7z M38.7,26.7c0,0.1,0,0.2,0,0.2l0,0.1l0,0.2l-0.1,0.3l0,0.1l0,0.1l0,0.1l0,0.1l0,0.1l0,0.1l0,0.1
		l0,0.1l-0.1,0.1l-0.2,0L37.9,28l0-0.3l0.2-0.4l0-0.1l0-0.1l0-0.1l0-0.1l0-0.1l0-0.1c0,0,0,0,0-0.1L38.7,26.7L38.7,26.7z M57.3,26.7
		L57.3,26.7L57.3,26.7l-0.1,0.1l-0.1,0l-0.1,0l0,0.1l-0.1,0l-0.1,0.1l-0.1,0l-0.2,0.1l-0.1,0.1l-0.1,0l-0.3,0.3L56,27.8l0,0.1l0,0.1
		L55.8,28l0,0.1l0,0.1l0,0.1l-0.1,0.1l0,0.1l0,0.1l0,0.1l-0.1,0.1l-0.1,0.1l0,0.1l-0.1,0.2l0,0.1l0,0.1l0,0.7l0,0.4
		c0,0.1,0.1,0.2,0.1,0.3l-0.5,0l-0.1-0.2c0,0,0-0.1,0-0.2c0-0.3,0-0.6,0.1-0.9l0-0.1l0-0.1l0.1-0.2l0.1-0.1l0-0.1l0-0.1l0-0.1l0-0.1
		l0-0.1l0.1-0.1l0-0.1l0.1-0.1l0-0.1l0-0.1l0-0.1l0-0.1l0.1-0.1l0-0.1l0-0.1l0-0.1l0.1,0l0.1-0.1l0.1-0.1l0-0.1l0.1-0.1l0.1-0.1
		l0.1-0.1l0.2-0.2l0,0H57.3L57.3,26.7z M62.4,26.7L62.4,26.7L62.4,26.7l0.1,0.2l0,0.1c0,0.1,0.1,0.1,0.1,0.2c0.1,0,0.1,0,0.1,0.1
		l0.5,0l0.4,0c0.2,0.1,0.5,0.1,0.8,0.2l0.2,0l0.5,0.2l0.1,0.1l0.1,0.1l0.1,0l0.1,0.1l0,0.1l0.2,0.1l0,0.1l0.1,0.1l0.2,0.3
		c0.1,0.1,0.1,0.1,0.1,0.1l0.2,0.2l0,0.1l0.1,0l0,0.1l0,0.1l0,0.1l0,0.1l0,0.1l0,0.1l0.1,0.1l0,0.1l0.2,0.4l0,0.1l0,0.1l0,0.2l0,0.3
		l0,0.1c0,0,0,0,0,0h-0.5l0-0.1l0-0.2l0-0.1l0-0.1l0-0.1l0-0.1l0-0.1l0-0.1l-0.1-0.1l-0.1-0.1l0-0.1l-0.1-0.1l-0.1,0L66,29.2
		l-0.1-0.1L65.8,29l0-0.1l-0.1-0.1l-0.3-0.4l-0.1-0.1l-0.1,0l-0.1,0l-0.1,0l0-0.1l-0.1-0.1l-0.1,0l-0.1,0l-0.1,0l-0.1,0l-0.1,0
		l-0.1,0l-0.1,0l-0.1,0l-0.1,0l-0.1,0l-0.1,0l-0.2,0l-0.3,0c-0.1,0.1-0.4,0-0.5,0l-0.2,0l-0.2-0.1l-0.1,0l-0.1-0.1l-0.2-0.2l0-0.1
		l0-0.1l-0.1-0.1l0-0.1l0-0.1l-0.1-0.1l-0.1-0.1c0,0,0,0-0.1-0.1L62.4,26.7L62.4,26.7z M10.4,30.7L10.4,30.7l0.1-0.1l0.1-0.1l0-0.1
		l0-0.1l0-0.1l0.1-0.1l0.1-0.1l0.1,0L11,30l0-0.1l0-0.1l0-0.1l0-0.1l0-0.1l0-0.1l0-0.1l0-0.1l0.1-0.1l0-0.1l0.1,0l0.1-0.1l0.2-0.2
		l0.1-0.1l0.1-0.1l0.1,0l0.1,0l0.1,0l0.1,0l0.1,0l0.1,0l0.1-0.1l0.1,0l0.1,0l0.1,0l0.3,0l0.1,0l0.2,0c0.2,0.1,0.4,0.1,0.7,0.1
		c0.1,0,0.2,0,0.3,0l0.1,0l0.1,0l0.1,0c0.1-0.1,0.3,0,0.4,0l0.3,0l0.4,0.2l0.2,0.2c0.1,0.1,0.2,0.1,0.2,0.2l0.2,0.2l0,0.1l0.1,0.1
		l0.1,0.1l0.1,0.1l0.1,0l0.1,0l0.1,0l0.1,0.1l0.1,0l0.1,0l0.1,0l0.1,0l0.1,0l0.1,0l0.1,0l0.1,0l0.1,0l0.1,0L18,30l0.1,0l0.1,0l0.1,0
		l0.1,0.1l0.1,0l0.1,0.1l0.1,0l0.1,0l0.1,0l0.1,0l0.1,0l0.1,0c0.1,0.1,0.2,0.1,0.2,0.1L10.4,30.7L10.4,30.7z M22.1,30.7L22.1,30.7
		l0.1-0.1l0.1-0.1l0-0.1l0-0.1l0.1-0.1l0.1-0.1l0.1-0.1l0.1-0.1l0.1-0.1l0.2-0.3l0.1,0h0.1l0.2-0.1l0.1,0l0.1,0l0.1,0l0.1,0l0.1,0
		l0.1,0l0.1,0l0.1-0.1l0.2-0.2l0.1,0l0.2-0.2l0.1-0.1l0.1-0.1l0.1,0l0.1,0l0.1,0l0.1,0l0.1-0.1l0.1,0l0.1-0.1l0.2-0.1l0.1-0.1l0.1,0
		l0.1,0l0.1,0l0.1,0l0.1-0.1l0.1,0l0.3-0.1l0.1,0c0.1-0.1,0.2-0.1,0.4-0.1c0,0.1,0,0,0,0.1l-0.1,0L26.6,28l-0.1,0l-0.3,0.1l-0.1,0
		l-0.1,0l-0.1,0l-0.1,0l-0.1,0l-0.1,0l-0.2,0.1l-0.1,0.1l-0.1,0.1l0,0.1l-0.1,0l-0.1,0.1l-0.1,0l-0.1,0.1L24.6,29L24.5,29l-0.4,0.4
		L24,29.5l-0.1,0.1l-0.1,0l-0.1,0l-0.1,0l-0.1,0.1l-0.1,0L23.2,30l-0.1,0.1l-0.2,0.2l-0.1,0l0,0.1l-0.1,0.1l-0.2,0.2H22.1L22.1,30.7
		z"/>
	<path fill-rule="evenodd" clip-rule="evenodd" d="M24.8,22.5L24.8,22.5L24.8,22.5l-0.2,0.2l-0.1,0.1l-0.1,0.1l-0.2,0.2
		c-0.1,0.1-0.1,0.1-0.1,0.1c0,0.1-0.1,0.1-0.1,0.2l-0.1,0.1l-0.1,0.1l-0.2,0.2L23.5,24l-0.1,0l-0.1,0.1l-0.2,0.2l-0.1,0.1l0,0.1
		l0,0.1l0,0.1l-0.1,0.1l0,0.1L22.8,25l0,0.1l0,0.1l0,0.1l0,0.1l-0.1,0.1l-0.2,0.5l0,0.1l0,0.1l0,0.1l0,0.1l0,0.1l0,0.3l0,0h-0.6
		l0-0.1l0-0.3l0-0.1l0-0.1l0-0.2l0.1-0.5l0-0.1l0.1-0.1l0-0.1l0-0.1l0-0.1l0-0.1l0-0.1l0-0.1l0-0.1l0-0.1l0.1-0.1l0-0.1l0-0.1l0-0.1
		l0-0.1l0-0.1l0-0.1l0.1-0.1l0-0.1l0-0.1l0.1,0l0.1-0.1l0.1-0.1l0-0.1l0.1-0.1l0.1-0.1l0.2-0.3l0.1-0.1l0.1-0.2l0.1-0.1l0-0.1l0-0.1
		l0.1-0.1l0-0.1l0.1-0.1l0,0H24.8L24.8,22.5z M35,22.5L34.9,23l0,0.4l0,0.1l0,0.1l0,0.1l0,0.1l0,0.1l-0.1,0.8l0,0.1l0,0.1l0,0.1
		l0,0.1l0,0.1l0,0.1l0,0.2l0,0.1l-0.1,0.3l0,0.1l0,0.1l0,0.1l0,0.1l0,0.1l0,0.1l0,0.1l-0.1,0.2H34l0.1-0.2l0-0.1l0-0.1
		c0.1-0.1,0.1-0.2,0.1-0.3l-0.1,0l0,0.1L34,26.2l0,0.1L34,26.4l0,0.1l0,0.1l-0.1,0.2l0,0h-0.2l0,0l0.1-0.1l0-0.1l0.1-0.2l0-0.1
		l0-0.1l0-0.1l0-0.1l0-0.1l0.1-0.2l0-0.1l0.1-0.2l0.1-0.2l0.1-0.4l0-0.1l0-0.1l0-0.1l0-0.1l0-0.2l0-0.1l0-0.1l0-0.2
		c0.1-0.3,0.1-0.6,0.2-0.8l0-0.4c0-0.1,0-0.2,0-0.2L35,22.5L35,22.5z M36.1,22.5C36.1,22.5,36.2,22.5,36.1,22.5l0.1,0.2l0,0.1l0,0.1
		l0,0.1l0,0.1l0.1,0l0.1,0.1l0,0.1l0.1,0.1l0.1,0l0.2,0l0.1,0l0.1,0l0.1,0.1l0.1,0.1l0.1,0l0.1,0l0,0.1l0.1,0l0.1,0.1l0.1,0
		c0-0.1,0-0.1,0-0.2l-0.1-0.3l0-0.1l0-0.1l0-0.1l0-0.1l-0.1-0.1l0-0.1l0-0.1l-0.1-0.1l-0.1-0.1l-0.1-0.1l-0.1,0l-0.1,0l0,0h0.3l0,0
		l0.1,0.1l0.1,0l0.1,0l0.1,0.1l0,0.1l0,0.1l0,0.1l0,0.1l0,0.1l0,0.1l0.1,0.2l0,0.1l0,0.1c0,0.1,0.1,0.2,0.1,0.4l0,0.1L38,24.6l0,0.1
		l-0.1,0l-0.1,0.1l0,0.1c0,0,0.1,0,0.1,0l0.1-0.1l0-0.1l0.1,0l0-0.1l0-0.1l0-0.1l0.1-0.1l0.1-0.1l0-0.1l0-0.2c0.1-0.3,0-0.8,0-1
		l0-0.3l-0.1-0.1l0-0.1l0,0h0.5l0,0.1l0,0.1l0,0.1l0,0.1l0,0.1c0.1,0.4,0.1,0.9,0,1.3l0,0.2l0,0.1c0,0.1,0,0.1-0.1,0.2l0,0.1l0,0.1
		l0,0.1l0,0.1l-0.1,0.1l0,0.1l0,0.1c-0.1,0.1-0.1,0.1-0.1,0.2c0.1,0.1,0.1,0.2,0.1,0.3l0,0.1l0,0.1l0,0.1l0,0.2l0,0.2l0,0.2
		c0,0,0,0.2,0,0.3l-0.5,0c0-0.1,0-0.2-0.1-0.3l0-0.1l0-0.1l0-0.1l0-0.1l-0.2-0.5l-0.1,0l-0.1-0.1l-0.2-0.2l-0.1,0l-0.1,0L37.3,25
		l-0.1,0l-0.1,0l-0.1,0l-0.2-0.1l-0.1,0l-0.1-0.1l-0.1,0l-0.2-0.2l-0.3-0.2l0-0.1l0-0.1l0-0.1l0-0.1l0-0.1l-0.1-0.1l0-0.2l0.1,0
		l0.1,0.1l0,0.2l0,0.1l0,0.1l0.1,0.1l0.2,0.2c0.1,0.1,0.2,0.2,0.3,0.3c0,0,0.1,0,0.2,0l0.1,0l0.1,0l0.3,0l0.1,0
		c0.1-0.1,0.2-0.3,0.1-0.5L37.5,24l0-0.1c0,0-0.1,0-0.1-0.1c-0.1,0-0.1,0-0.1-0.1l-0.1,0l-0.1,0l-0.1,0l-0.1,0l-0.3-0.1l-0.1,0
		l-0.1-0.1l0-0.1l-0.1,0c-0.1-0.1-0.2-0.2-0.3-0.3l0-0.2c0-0.1-0.1-0.2-0.1-0.2L36.1,22.5L36.1,22.5z M35.6,26.7L35.6,26.7
		L35.6,26.7l-0.1-0.2l0-0.1l-0.1-0.1l-0.1-0.1l-0.1-0.2l0-0.2c0.1,0,0,0,0.1,0l0,0.1c0.1,0.1,0,0.1,0,0.3l0,0.1l0,0.1l0.1,0.1
		l0.1,0.1l0.1,0.1l0.1,0.1H35.6L35.6,26.7z M36.9,26.7L36.9,26.7l-0.1-0.1l0-0.1l-0.1-0.1l-0.2-0.2l-0.1,0l-0.1,0l-0.1-0.1l0-0.1
		l-0.1,0l0-0.1l0-0.1l0-0.1l-0.1,0l0-0.1c-0.1-0.1-0.1-0.2-0.1-0.4c0,0,0,0,0.1,0c0.1,0.1,0.1,0.3,0.2,0.5l0.2,0.3l0.1,0.1l0.1,0
		l0.1,0l0.1,0.1l0.1,0.1l0.1,0.1l0.1,0.1l0.1,0.1l0.1,0l0.1-0.1c0.1-0.2-0.1-0.3-0.1-0.3L37.1,26l-0.1,0L37,25.8l-0.2-0.2
		c-0.1-0.1-0.2-0.1-0.2-0.2c0.1,0,0.2,0.1,0.3,0.1l0.1,0l0.1,0l0.1,0.1l0.1,0l0.1,0.1l0.1,0.1l0.1,0.1c0.1,0.1,0.2,0.1,0.2,0.2
		l0,0.1l0,0.1c0,0.1,0.1,0.3,0.1,0.4L36.9,26.7L36.9,26.7z M56.5,26.7L56.5,26.7l0.2-0.1l0.1,0l0.1,0l0.1-0.1l0.1,0l0.1,0l0.1-0.1
		l0.1,0l0.1,0l0.1,0l0.1-0.1l0.1,0l0.1,0l0.1,0l0.1,0l0.2,0l0.1,0l0.1,0l0.2-0.1l0.1,0l0.1,0l0.1,0l0.1,0l0.2,0l0.1,0l0.3,0l0.7,0
		c0.3,0,0.4,0.1,0.7,0.1l0.1,0l0.6,0.2l0.1,0l0.1,0l0.1,0l0.1,0l0,0.1l0.1,0.1l0.1,0l0.1,0l0.1,0.1l0.1,0.1l0.1,0l0.1,0.1l0,0.1
		h-0.7c-0.1,0-0.1-0.1-0.1-0.1l-0.2-0.2l-0.2,0l-0.1,0l-0.1,0l-0.1,0l-0.1,0l-0.1,0l-0.1,0l-0.1,0l-0.1,0l-0.8-0.1l-0.3,0l-0.1,0
		l-0.2,0l-0.1,0l-0.5,0.1l-0.2,0l-0.1,0l-0.1,0l-0.1,0l-0.2,0l-0.1,0l-0.1,0l-0.1,0l-0.1,0l-0.1,0l-0.1,0.1l-0.1,0l0,0H56.5
		L56.5,26.7z"/>
	<path fill-rule="evenodd" clip-rule="evenodd" d="M16.3,17.7L16.3,17.7l0,0.3l0,0.2l0,0.2c0,0.1,0.2,0.4,0.3,0.4
		c0.1,0.1,0.4,0,0.6,0l0.1,0l0.1,0l0.1,0l0.2,0l0.5,0l0.1,0l0.1,0l0.1,0l0.1,0l0.1,0l0.1-0.1l0-0.1l0.1,0l0.1-0.1l0-0.1l0.1-0.1
		l0.1,0l0.1-0.2l0.1-0.1l0.1,0l0.1-0.1l0.1,0l0.1,0l0.1-0.1l0.1,0l0.5,0l0.3,0l0.1,0c0.1,0.1,0.1,0.1,0.1,0.1c0,0,0,0.1,0,0.1
		c0,0,0,0,0,0.1l-0.1,0l-0.1,0l-0.1,0.1l-0.1,0.1l-0.1,0.1l0,0.1l-0.1,0.1l-0.2,0.2l0,0.1l0,0.1l0,0.1L20,19.1l-0.1,0.1l0,0.1
		l-0.1,0.1l-0.1,0.1l-0.1,0.1l-0.1,0l-0.1,0l-0.6,0.1c0,0.1,0,0.1,0,0.1c0.1,0.1,0.3,0,0.4,0l0.1,0l0.1,0l0.1-0.1l0.1-0.1l0.1,0
		l0.1-0.1l0.1-0.1l0.1,0c0.1,0,0.1,0,0.2,0c0,0.1,0,0.1,0,0.2c0,0,0,0.1,0,0.1l0.1,0.1c0.1,0.1,0.1,0.1,0.1,0.1l0.2,0
		c0.2-0.1,0.5-0.4,0.5-0.6c0-0.1,0-0.3,0-0.4l0.1-0.1l0.1-0.1l0-0.1l0.1-0.1c0-0.1,0.1-0.1,0.1-0.1l0.1-0.1l0.1,0l0.1-0.1l0.1-0.1
		l0.1,0l0.1-0.1c0-0.1,0-0.2,0-0.4l0.1,0l0.1,0c0,0,0,0,0.1,0l0,0.1l0,0.1c0,0,0,0.1,0,0.2l0.1,0c0.1,0.1,0.3,0,0.5,0l0.6,0l0.1,0
		l0.2,0l0.1,0l0.1,0l0.1,0l0.1,0l0.1,0l0.1,0l0.1,0l0.1,0l0.1,0l0.1,0l0.1-0.1l0.1,0l0.3,0l0.1,0l0.1,0l0.1,0l0.1,0l0.1,0l0.1,0
		l0.1,0l0.1,0l0.1,0l0.1,0l0.1,0c0.1,0,0.4,0,0.4,0l0.5,0l0.2-0.1l0.1-0.1l0.1-0.1l0.1,0l0.1,0h0.7l-0.2,0.2l-0.1,0l-0.1,0l-0.1,0
		l-0.1,0L28,18.1l0,0.1l0,0.1l0,0.1l-0.1,0.1l0,0.1l-0.1,0.1l-0.2,0.2l-0.1,0.1l-0.2,0.2c-0.1,0.1-0.2,0.3-0.4,0.3c0,0,0,0,0-0.1
		c0,0,0,0,0-0.1l0.3-0.3l0-0.1v-0.1l0.1-0.1l0.1-0.1l0.1-0.1l0-0.1l0-0.1v-0.1l-0.1,0l0,0.1l-0.1,0.1l-0.1,0.1l0,0.1l-0.1,0l0,0.1
		L27,18.9C27,19,26.9,19,26.8,19c0,0-0.1,0-0.1-0.1l-0.1-0.1l-0.1,0l-0.1-0.1c0,0-0.2-0.1-0.3-0.1l-0.1,0c0,0-0.1,0.1-0.1,0.1l0,0.3
		l0,0.4c0,0.1,0.1,0.2,0,0.3l0,0.1l0,0.1l0,0.2l-0.1,0.4l-0.1,0.3l0,0.1l0,0.1l0,0.1l0,0.1l-0.1,0.1l0,0.1l0,0.1l-0.1,0.1l-0.1,0
		l0,0.1l-0.1,0.1l-0.1,0.1l0,0.1l0,0.1l0,0.1L25,22.3l0,0.1l0,0.1l-0.1,0l0,0.1H24l0-0.1l0-0.1l0.2-0.2l0.1-0.1l0.1-0.1l0.1-0.1
		l0-0.1l0-0.1l0-0.1l0.1-0.1l0-0.1l0-0.1l0.1-0.1l0-0.1l0.1-0.2l0.1-0.2l0-0.1l0.1-0.2l0-0.1l0.1-0.2l0-0.2l0-0.1l0-0.1l0-0.1
		c0-0.1,0-0.6,0-0.7l0-0.2l-0.1-0.1l-0.1-0.1l-0.1-0.1l-0.1-0.1l0-0.1c-0.1-0.1-0.1-0.1-0.2-0.1c0,0,0,0-0.1,0l-0.1,0l-0.1,0.1
		l-0.1,0l-0.1,0l-0.1,0l-0.1,0l-0.1,0l-0.1,0l-0.1,0l-0.1,0l-0.1,0l-0.3,0l-0.3,0l-0.1,0l-0.1,0l-0.1,0l-0.1,0l-0.1,0l-0.3,0l-0.2,0
		c-0.1,0-0.2,0.1-0.3,0.2L22.1,19L22,19.1l-0.1,0l-0.1,0.1l0,0.1l-0.1,0.1l0,0.1l0,0.1l0,0.1l0,0.1l-0.1,0l0,0.1l-0.1,0.1L21.3,20
		l-0.1,0.1c-0.2,0.1-0.4,0.2-0.6,0.3c-0.1,0-0.5,0-0.5,0c0,0-0.1-0.1-0.2,0l-0.1,0l-0.1,0l-0.1,0l-0.3,0.1l-0.1,0l-0.1,0l-0.1,0
		l-0.1,0l-0.1,0l-0.2-0.1l-0.1-0.1l-0.1,0l0-0.1l-0.1,0l-0.1-0.1l0-0.1l0-0.1l-0.1-0.3l0-0.2c-0.1,0-0.3,0-0.4,0c-0.1,0-0.2,0-0.3,0
		l-0.1,0l-0.2-0.1l-0.1,0l-0.6-0.1l-0.1-0.1l0-0.1l-0.1-0.1c-0.1-0.2-0.2-0.3-0.3-0.5l0-0.3c0-0.1-0.1-0.2,0-0.3c0,0,0-0.1,0-0.1
		L16.3,17.7L16.3,17.7z M32.7,17.7L32.7,17.7C32.7,17.7,32.6,17.7,32.7,17.7c-0.1,0.1-0.2,0-0.2,0L32.7,17.7L32.7,17.7z M34.3,17.7
		L34.3,17.7L34.3,17.7l0,0.1l0.1,0.2l0,0.2l0,0.1l0.1,0.2l0,0.1c0,0.1,0.1,0.2,0.1,0.3l0,0.4l0,0.2l0,0.1l0,0.2c0.1,0.1,0,0.3,0,0.4
		l0,0.3c0.1,0.2,0.1,0.4,0.1,0.6l0,0.2c0.1,0.1,0,0.5,0,0.6c0,0.1,0,0.3,0,0.4l0,0h-0.3c0-0.1,0-0.2,0-0.2c0.1-0.1,0-0.4,0-0.5
		l0-0.4l0-0.3l0-0.1l0-0.1l0-0.3l0-0.3l0-0.4l0-0.1l0-0.2l0-0.2l0-0.2l0-0.1l0-0.1l0-0.1l0-0.1l0-0.1l-0.1-0.4l-0.1-0.4l-0.1-0.2
		H34.3L34.3,17.7z M37.4,17.7L37.4,17.7l0.1,0.1l0.1,0.1l0,0.1l0,0.1l0,0.1l0,0.1l0,0.1l0,0.1l0.1,0.1l0,0.1l0.1,0l0,0.1l0,0.1
		l0,0.1l0.1,0.2l0.1,0.2l0,0.1l0,0.1l0,0.1l0,0.1l0,0.1l0,0.2l0,0.3l0,0.3l0,0.3l0,0.2l0,0.3l0,0.1l0,0.1l0,0.1l0,0.1l-0.1,0.2
		c0,0.1-0.1,0.1-0.1,0.2l0.1,0.2l0.1,0.1l0.1,0.1l0,0.1l0.1,0.1l0.1,0.2l0,0.1l0,0h-0.5l0,0L38,22.3l-0.1-0.2l0-0.1l0-0.1
		c-0.1,0-0.1-0.1-0.1-0.1c0,0-0.1,0-0.1,0l-0.1-0.1l-0.1,0l-0.1,0l-0.1,0l-0.1,0l-0.1,0l-0.1,0l-0.1,0l-0.1,0l-0.1,0l-0.1-0.1
		l-0.1-0.1l-0.1-0.1l-0.1-0.1l-0.1,0l-0.1,0l-0.1,0l-0.1-0.1c-0.1-0.1-0.3-0.3-0.3-0.5l0.1,0l0,0.1l0,0.1l0.1,0l0.1,0.1l0.1,0.1
		l0.1,0.1l0.1,0.1l0.1,0l0.1,0l0.1,0.1c0.2,0.1,0.2,0.1,0.4,0.1l0-0.1l0-0.1l0.1-0.1l0-0.1l0-0.1l0-0.1c0.1-0.1,0-0.3,0-0.4l0-0.1
		l0-0.1l0-0.1l0-0.1l-0.1,0l-0.1-0.2l-0.1,0l-0.1,0l-0.1,0l-0.1,0l-0.1,0l-0.1-0.1L36,19.6l-0.1,0l0-0.1l-0.1,0
		c-0.1-0.1-0.2-0.2-0.2-0.2c0-0.1-0.1-0.1-0.1-0.2c0.1,0,0,0,0.1,0c0.1,0,0.1,0.1,0.1,0.1c0.1,0.1,0.2,0.1,0.3,0.2l0.2,0.1
		c0.1,0,0.2,0.1,0.3,0.1l0.2,0l0.1,0l0.1,0l0.1,0l0.2,0.1l0.1,0.1l0,0.1l0,0.1l0,0.1l0,0.1l0,0.1l0.1,0.1l0,0.1l0,0.1
		c0,0.1,0,0.2,0,0.2l0,0.2l0,0.1c-0.1,0.1-0.1,0.2-0.1,0.4c0.1,0,0.1,0.1,0.2,0.1c0,0,0,0,0.1,0l0-0.1l0.1-0.1l0.1-0.2l0-0.1l0-0.1
		c0-0.1,0.1-0.2,0-0.3l0-0.1l0-0.1l0-0.2l0-0.4c-0.1-0.2-0.2-0.5-0.4-0.6l0-0.1c-0.1-0.1-0.1-0.1-0.1-0.1l-0.1-0.1l-0.1,0l-0.1,0
		l-0.1,0l0-0.1l-0.1,0l-0.7-0.1l-0.1,0l-0.1,0l-0.1,0l-0.1,0l0-0.1l-0.1-0.1l-0.1-0.1l-0.1-0.1c0,0,0,0,0-0.1l0-0.1h0.1
		c0.1,0.1,0.2,0.2,0.4,0.3l0.1,0.1l0.1,0l0.2,0c0.1,0.1,0.3,0,0.4,0l0.1,0l0.1,0l0.1,0.1l0.1,0c0.1,0.1,0.1,0,0.2,0
		c0-0.1,0-0.1,0-0.1c-0.1-0.1-0.1-0.2-0.1-0.3c-0.1-0.1-0.1-0.1-0.1-0.1c-0.1,0-0.1-0.1-0.1-0.1l-0.2-0.2l-0.1,0l-0.1-0.1l-0.1-0.1
		H37.4L37.4,17.7z M36,22.5c0,0,0-0.1,0-0.2l0.1,0c0.1,0.1,0.1,0.1,0.1,0.2L36,22.5L36,22.5z M37,22.5L37,22.5
		c-0.1-0.1-0.1,0-0.1-0.2c0.1,0,0.2,0,0.3,0.1h0.1l0.1,0.1l0.1,0H37L37,22.5z"/>
	<path fill-rule="evenodd" clip-rule="evenodd" d="M19.9,12.7L19.9,12.7L19.9,12.7l-0.2,0.1l-0.1,0l-0.1,0.1l-0.1,0l-0.1,0l-0.1,0
		l-0.1,0.1l-0.2,0.2l-0.2,0.2l-0.1,0.1l0,0.1l0,0.1l0,0.1l0,0.1L18.5,14l-0.1,0l-0.2,0.1l-0.1,0l-0.1,0l-0.1,0l-0.2,0l-0.1,0l-0.1,0
		l-0.1,0l-0.3,0.3l0,0.1L16.8,15l-0.1,0l-0.1,0l0,0.1l-0.3,0.3l0,0.1l0,0.2c0,0.1-0.1,0.2,0,0.3l0.1,0.4l0.1,0.2l0,0.1l0,0.1l0,0.1
		l0,0.2l0,0.2l-0.1,0.2l-0.1,0.1l0,0.1l0,0.1h-0.4c0-0.2,0.1-0.3,0.1-0.5l0-0.1c0-0.1,0-0.3,0-0.4l0-0.1l-0.1-0.1l-0.1-0.1l0-0.1
		l-0.1-0.1l0-0.1c0-0.1,0-0.2,0-0.3l0-0.4l0-0.1l0-0.1l0-0.1l0.1-0.1l0-0.1l0.1-0.1l0-0.1l0.1-0.1l0.1,0l0.1-0.1l0.1,0l0.1,0l0.1,0
		c0-0.1,0.1-0.1,0.1-0.1c0-0.1,0.1-0.2,0.2-0.2l0.2-0.3l0.1-0.1l0.1-0.1l0.1,0l0.4-0.1l0.1,0c0.1,0,0.1,0,0.2-0.1l0.1,0l0.1-0.1
		l0.1-0.1l0.1,0l0.1-0.1l0.1-0.1c0.1-0.1,0.1-0.1,0.2-0.1l0.1-0.1l0.1-0.1l0.1-0.1l0,0H19.9L19.9,12.7z M30.6,12.7
		c0,0.1,0.1,0.2,0.1,0.3l0,0.1c0,0.1,0,0.5,0,0.6l0,0.1c0,0.1,0,0.3-0.2,0.3l0-0.1l0-0.2l0-0.1l0-0.1l0-0.2l0-0.1l0-0.1l0-0.1l0-0.1
		l-0.1-0.2l-0.1-0.1H30.6L30.6,12.7z M31.9,12.7L31.9,12.7l0.1,0.2l0,0.1l0.1,0.1l0.1,0l0,0.1l0,0.1l0,0.1l0.1,0.1l0,0.1l0,0.1
		l0,0.1l0.1,0l0,0.1l0,0.1l0,0.1l0.1,0l0,0.1l0,0.1l0.1,0.1l0,0.1l0,0.1l0,0.1l0,0.1l0,0.1l0,0.1l0,0.1l0.1,0l0,0.1l0,0.1l0,0.1
		l0,0.1l0,0.1l0,0.1l0.1,0.1l0.1,0.1l0,0.1l0.1,0.3l0.1,0.1l0.1,0.1l0.1,0.3l0,0.1l0.1,0.1l0,0.1l0.1,0.3l0,0.1l0,0.1l0,0.1l0.1,0.3
		l0.1,0.3l0.1,0.2h-0.2L34,17.5l0-0.2l0-0.1l0-0.1l0-0.1l0-0.1l0-0.1l0-0.1l0-0.1l0-0.1l0-0.1l0-0.1l0-0.1l-0.1-0.2l0-0.1l0-0.1
		l0-0.1l-0.2-0.3l0-0.1c-0.1-0.2-0.1-0.4-0.3-0.4c0,0.3,0.1,0.4,0.1,0.7h-0.1l0-0.1l0-0.1l0-0.1l0-0.1l0-0.1l0-0.1l0-0.1l0-0.1
		l0-0.1l0-0.1l0-0.1l0-0.1l0-0.1l0-0.1l0-0.1l0-0.1l-0.1-0.1l-0.1,0h-0.1c0,0.1,0,0.1,0,0.2l0.1,0.3c0.1,0.1,0.1,0.3,0.2,0.5l0,0.1
		l0.3,1.1l0,0.2c0,0.2,0,0.3-0.1,0.4l0,0.2l-0.1,0.2h-0.2c0,0,0,0,0-0.1l0.1-0.2l0-0.1c0-0.1,0.1-0.4,0.1-0.6l0-0.2l0-0.1l0-0.1
		l0-0.1l0-0.3l0-0.1l0-0.1l0-0.1l0-0.1l0-0.1l0-0.1l0-0.1l0-0.1l0-0.2l-0.3-0.8l0-0.1l0-0.1L31.9,14l0-0.1l0-0.1l-0.1-0.1l0-0.1
		l0-0.1l0-0.1l0-0.1l0-0.1l-0.2-0.1l-0.1,0c0,0.2,0,0.4,0.1,0.6l0,0.1c0.1,0.1,0,0.5,0,0.6l0,0.1l0,0.1l0,0.1l-0.1,0
		c0,0.1,0,0.1-0.1,0.1L31,15l0-0.1l0-0.1l0.1-0.1l0-0.1l0.1-0.3l0-0.1c0.1-0.1,0-0.3,0-0.4l0-0.1l0-0.1l0-0.1l0-0.1l0-0.1l0-0.1
		l0-0.3L31,12.8l-0.1-0.1H31.9L31.9,12.7z M34.8,12.7L34.8,12.7l0,0.2l0,0.2c0,0.1,0,0.2,0,0.2c0,0.1,0,0.2,0,0.3l0.1,0.1l0.1,0
		l0.1,0.1l0.2,0.1l0.1,0.1l0.1,0.1l0.2,0.1l0.1,0.1l0.1,0l0.1,0l0.1,0.1l0.1,0.1l0.2,0.2l0.1,0.1l0,0.1l0,0.1l0.1,0.1l0,0.1l0.1,0.2
		l0,0.1l0,0.1l0,0.1l0.1,0.2l0,0.1l0,0.2c0,0.1,0,0.2,0,0.3l0,0.2l0,0.3c0,0.1-0.1,0.3-0.1,0.4l0.1,0.2l0,0.2l0.1,0.2l0.1,0l0.1,0.1
		l0.1,0.1h-0.8l0-0.1l-0.1,0l-0.1,0l-0.1,0l-0.1,0l-0.1,0l-0.1,0l-0.1,0l-0.1,0l-0.1-0.1l0-0.1l-0.1-0.1L35.3,17L35.2,17l-0.1-0.1
		L35,16.8l-0.1-0.1l-0.1,0l0-0.1v-0.1l0.1,0c0.1,0.1,0.2,0.2,0.3,0.2l0.1,0.1l0.1,0l0.1,0l0.1,0.1l0.2,0.1l0.2,0.1
		c0.1,0.1,0.5,0,0.5-0.1c0.1,0,0-0.2,0-0.2l0-0.1l0-0.1l0-0.1l0-0.1l-0.1-0.1L36,16.3l-0.1-0.1l-0.1,0l-0.1,0l-0.1,0l-0.1,0l-0.1,0
		l-0.1-0.1l-0.1,0l-0.1,0l-0.1-0.1l-0.2,0l-0.2,0c-0.1,0-0.2-0.1-0.3-0.2c-0.1,0-0.1,0-0.1-0.1l0-0.1l0.1,0l0.1,0l0.1,0.1l0.1,0
		l0.1,0l0.4,0l0.1,0l0.1,0l0.1,0l0.1,0l0.1,0l0.1,0l0.1,0l0.1,0.1l0.1,0c0.1,0.1,0.1,0.1,0.2,0.1l0-0.1l0-0.1l0-0.1l-0.1,0L36,15.5
		L36,15.4c-0.1,0-0.1,0-0.1-0.1c-0.1-0.1-0.1-0.1-0.1-0.1l-0.1-0.1l-0.1,0l-0.1,0l-0.1,0l-0.1,0l-0.1,0l-0.4,0l-0.1,0l-0.1,0
		c-0.1-0.1-0.3,0-0.3-0.2c0.2,0,0.3,0.1,0.5,0.1l0.3,0l0.3,0l0.1,0l0.1,0c0.1,0,0.2,0.1,0.3,0.1c0,0,0-0.1,0-0.1
		c0,0-0.1-0.1-0.1-0.1l0-0.1l-0.3-0.2l-0.1,0l-0.1,0l-0.1-0.1l-0.2-0.1l-0.1,0l-0.1,0l-0.1,0l-0.3,0l-0.1,0l-0.1,0l-0.1,0l-0.1,0
		l-0.1,0l-0.1,0l-0.1,0L34,13.8L34,13.8l0-0.1l-0.1-0.1l-0.1-0.1l-0.1-0.1l-0.2-0.2c-0.1-0.1-0.1,0-0.1-0.1c0,0,0.1,0,0.2,0
		c0,0,0,0,0.1,0l0.2,0.2l0.1,0.1c0.1,0.1,0.1,0.1,0.1,0.1c0.1,0,0.2-0.2,0.2-0.3l0-0.2l0-0.1l0-0.1l0-0.1H34.8L34.8,12.7z
		 M27.9,17.7L27.9,17.7l0.2-0.1l0.1,0l0.1,0l0.1,0l0.1,0l0.3-0.3l0-0.1l0-0.1l0.1-0.1l0-0.1l0-0.1l0-0.1l0.1,0l0-0.1l0.1-0.3
		l0.1-0.4l0-0.1l0-0.3l0-0.2c0.1-0.2,0-0.6,0.3-0.7l0,0.1c0.1,0.1-0.1,0.3-0.1,0.4c0,0.2,0,0.4,0,0.5c0,0.1,0,0.2,0,0.2
		c0,0.1,0,0.4,0,0.4c0,0.1-0.1,0.3-0.1,0.4l0,0.1l0,0.1l-0.1,0.1l0,0.1l0,0.1l-0.1,0.2l0,0.1l0,0.1l-0.3,0.3l-0.1,0.1H27.9
		L27.9,17.7z"/>
	<path fill-rule="evenodd" clip-rule="evenodd" d="M19.1,12.7l0.1-0.1l0.1-0.1l0.1,0l0-0.1l0.1-0.1l0.1,0l0-0.1l0.1,0l0.1,0l0.1,0
		l0.1,0L20,12l0.1-0.1l0.1-0.1l0.1,0l0.1,0l0.1,0l0.1,0l0.1-0.1l0.1-0.1l0.1-0.1l0.1-0.1l0-0.1l0-0.2l0-0.3l0-0.1l0-0.1l0.1-0.1
		l0.1,0l0.1,0l0.1-0.1l0.1,0l0.1,0l0.1,0l0.1-0.1l0.1,0l0.1-0.1l0.2,0l0.5,0l0.1,0l0.1,0l0.1-0.1l0.1,0l0.1,0l0-0.1l0-0.1
		c-0.2-0.1-0.3-0.3-0.3-0.5l0-0.1l0-0.1l0-0.4l0-0.1l0-0.1l0-0.1l0-0.1l0.1-0.1l0-0.1l0-0.1L23,8l0-0.1l0.1-0.1l0-0.1l0.1-0.1l0.1,0
		l0.1,0l0.1,0l0.1,0l0.1,0l0.1,0l0.1,0l0.3,0l0.1,0l0.1,0l0.1,0l0.4,0l0.1,0l0.1,0l0.1,0l0.1-0.5l0.1-0.1l0.1-0.1l0-0.1l0-0.1
		l0.1-0.1l0.2-0.2l0-0.1l0-0.1l0.1-0.1l0.2,0l0.1,0l0.1,0c0.1-0.1,0.3,0,0.3,0l0.1,0.1c0.1,0.1,0,0.3,0,0.4c0,0.1,0,0.3,0,0.4l0.1,0
		c0-0.1,0.2-0.1,0.3-0.1l0.2,0l0.1,0l0.2,0.1c0.1,0.1,0.1,0.1,0.1,0.3l0,0.1l-0.1,0.1l-0.1,0.1l-0.1,0l-0.1,0l-0.1,0.1l0,0.2l0,0.1
		c0,0,0.1,0.1,0.1,0.1l0.1,0l0.1,0l0.1,0l0-0.1l0-0.1l0-0.1l0-0.1l0-0.1l0-0.1l0-0.1L27.8,7l0.1-0.1L28,6.7l0-0.1l0-0.1l0-0.1l0-0.1
		l0-0.1l0.1,0l0-0.1l0.1,0l0.1,0l0.1-0.1l0.1,0l0.1,0c0.1,0,0.4-0.1,0.5-0.1c0,0,0.1,0,0.1,0.1l0.1,0.1l0.1,0.1l0,0.1l0,0.7l0,0.1
		l0,0.1l0,0.1l0.1,0.3l0,0.2l0,0.2l0,0.1l0,0.1l0,0.1l0,0.1l0,0.1l0,0.1l0.1,0.4L30,8.9l0,0.1l0,0.1l0,0.1l0,0.1l0,0.2l0.1,0.1
		l0.1,0.1l0,0.1l0.1,0.1l0.1,0l0.1,0.1l0.1,0l0.2,0l0.1,0l0.2,0l0.1,0l0.1,0l0.2,0l0.2,0l0.2,0c0.2,0,0.3,0,0.4,0l0.1,0l0.1,0l0.1,0
		l0.3,0.1l0.1,0l0.1,0.2l0.3,0.3l0.1,0.1l0,0.1l0,0.1l0,0.1l0,0.1l0,0.1l0,0.1c0,0,0,0.1,0,0.1l0.2,0.1l0.2,0.1l0.1,0l0.1,0.1
		l0.1,0.1l0,0.1l0,0.1l0,0.1l0,0.1l0,0.1l0,0.1l0,0.1l0,0.1h-0.5l0,0l0-0.1l0-0.1l-0.1-0.1L34,12.3l-0.1-0.1l-0.1,0L33.5,12l-0.1,0
		L33,11.9l-0.4,0c0,0-0.1,0.1-0.2,0l-0.1,0l-0.1,0l-0.2-0.1l-0.1,0l-0.1,0l-0.1,0l-0.1-0.1l-0.1-0.1l0-0.1c0,0,0,0,0.1,0
		c0.1,0.1,0.1,0,0.2,0.1l0.1,0l0.1,0c0,0,0.3,0.1,0.4,0.1l0.1,0l0.1,0l0.1,0l0.2,0c0.2-0.1,0.2,0,0.2-0.3c0,0,0,0,0-0.1L33,11.2
		l-0.1-0.1l-0.1,0L32.8,11l-0.2-0.1l-0.1,0l-0.1,0l-0.2-0.1l-0.1,0l-0.4-0.1l-0.1,0l-0.1,0l-0.1,0c-0.1-0.1-0.2,0-0.2,0
		c-0.1,0-0.3,0.1-0.4,0l-0.1,0l-0.1,0l-0.1,0c-0.1-0.1-0.2-0.1-0.4-0.1c0,0,0,0.1,0,0.2l0,0.2l0,0.2l0,0.1l0,0.1l0.1,0.1l0.1,0
		l0.1,0l0.1,0l0.1,0l0.1,0.1l0.3,0.2l0.1,0.1l0,0.1l0.1,0.1l0.1,0.1l0.1,0.1l0.1,0.1l0.1,0.1l0,0.1l0,0h-1l0,0l-0.1,0
		c-0.1-0.1-0.1-0.2-0.3-0.2c0,0.1,0,0.2,0,0.2l-0.2,0l0,0l0-0.1l-0.1-0.2l-0.1,0c-0.2,0-0.1,0.1-0.3,0.1c0-0.1-0.1-0.2,0-0.3
		l0.1-0.1C30,12,30,11.9,30,11.9c-0.1,0-0.2,0.1-0.3,0.1l-0.4,0c-0.1,0-0.3,0-0.3,0c-0.1,0-0.1-0.1-0.1-0.1c0,0,0,0,0-0.1l0.1,0
		l0.2,0l0.1,0l0.1,0l0.1-0.1l0.1,0l0.1,0l0.1-0.1l0-0.1l0-0.1l0-0.1l0-0.1l0-0.1l0-0.1l0-0.2l0-0.3l0-0.1l0-0.1l0-0.1l0-0.1
		l-0.1-0.1l0-0.1L29.5,9l0-0.1l-0.1-0.3l0-0.1l0-0.1l0-0.1l0-0.1l0-0.1l0-0.1l0-0.1l0-0.1l0-0.1l0-0.2l0-0.3l0-0.1l0-0.1l0-0.1
		l0-0.1l0-0.3l0-0.3c-0.1,0-0.1-0.1-0.1-0.1c0,0-0.1,0-0.1,0.1l0,0.1l-0.1,0.1l-0.1,0.1l0,0.1l0,0.1l0,0.1l-0.1,0.2l0,0.1l-0.1,0.2
		l0,0.2l0,0.1l0,0.1L28,8l0,0.4l0,0.1l-0.1,0.2l0,0.1l0,0.1l0,0.1l0,0.1l0,0.1l0,0.1l0,0.1l0,0.1l0,0.3l0,0.1l0,0.4l0,0.1l0,0.1
		l0,0.1l0.1,0.1l0,0.1l0,0.1l0,0.1c0.1,0.1,0.1,0.1,0.1,0.2L27.8,11c0,0-0.1,0-0.1-0.1c0,0,0,0-0.1-0.1l0-0.1l-0.1-0.2l0-0.1l0-0.1
		l-0.1-0.2l0-0.4l0-0.4l0-0.1l0-0.2l0-0.4l0-0.1c0.1-0.1,0-0.2,0-0.2c-0.5-0.2-0.7-0.4-0.7-1.1c0,0,0,0-0.1-0.1l-0.1,0l-0.1,0.1
		l-0.1,0.1l0,0.1l-0.1,0.1l0,0.1l0,0.1l0,0.1l0,0.1l0,0.1c0,0,0,0.2,0,0.2c0,0,0,0.1,0,0.1c0,0-0.1,0-0.1,0L26,8.6l-0.1-0.1
		l-0.1-0.1l0-0.1l-0.1-0.1l-0.1,0l-0.1,0l-0.1,0l-0.1,0l-0.1,0l-0.1,0l-0.1,0L25,8l-0.1,0l-0.1,0l-0.1,0l-0.1,0l-0.1,0l-0.1,0
		l-0.1,0l-0.1,0L24,8L24,8l-0.1,0l-0.2,0.1l-0.1,0l-0.1,0.1l-0.1,0.1l-0.1,0.2c-0.1,0.1-0.1,0.3-0.1,0.4l0,0.1c0,0,0,0,0,0.1l0.1,0
		L23.5,9l0.2-0.2l0.1,0l0.1,0c0.1-0.1,0.3-0.1,0.4-0.1c0.1,0,0.2,0,0.3,0.1l0.1,0.1L24.8,9l0,0.1l0.1,0.1L25,9.2l0.1,0.1l0.1,0
		l0.1,0l0.3,0.1l0.1,0l0.2,0.1l0.1,0l0.2,0l0.1,0l0,0.1L26,9.9l-0.3,0l-0.1,0l-0.1,0l-0.1,0l-0.2,0l-0.1,0l-0.1,0
		c-0.1,0-0.3-0.1-0.4-0.1l-0.1,0l-0.1,0l-0.1,0l-0.1,0l-0.1,0.1l-0.1,0l-0.1,0l-0.1,0L23.9,10L23.7,10l-0.1,0.1l-0.1,0l-0.1,0
		l-0.1,0l0,0.1l-0.1,0.1l-0.1,0l-0.1,0l-0.1,0l-0.1,0l-0.1,0l-0.1,0c-0.1,0.1-0.4,0.1-0.5,0.1l-0.1,0c-0.2,0-0.4,0.1-0.5,0.2l-0.1,0
		l-0.1,0l0,0.1l-0.2,0.6l0,0.1l-0.1,0.1l-0.1,0l-0.1,0.1l-0.1,0L21,12l-0.1,0l-0.1,0l-0.1,0.1l-0.1,0.1l-0.1,0l-0.1,0l-0.1,0
		l-0.1,0.1l0,0.1l-0.1,0.1l-0.1,0l-0.1,0l-0.1,0l0,0H19.1L19.1,12.7z"/>
	<path fill="#FFFFFF" d="M26,6.7c0.1,0,0.2,0,0.2,0.1c0.1,0.1,0,0.2,0,0.3h0c0.1,0.2-0.1,0.5-0.2,0.6v0L26,7.8l0,0l0,0
		c-0.1,0-0.2,0-0.3,0c0,0-0.1-0.1-0.1-0.1c0-0.2,0-0.4,0-0.5h0v0h0l0-0.1l0,0l0-0.1l0.1,0l0,0l0,0l0.1-0.1L26,6.7L26,6.7
		C26,6.7,26,6.7,26,6.7L26,6.7z"/>
	<path d="M28.7,8c0,0.1,0,0.2,0,0.3l0,0.3c0,0,0,0.1,0,0.1h0l0,0.1h0l0,0.1h0V9l0,0v0.1h0l0,0.1h0v0l0,0l0,0.1h0l0,0h0v0.1l0,0l0,0
		l0,0l0,0.1l0,0v0h0l0,0.1l0,0l0,0.1h0v0.1h0l0,0.1h0l0,0.1h0l0,0.1l0,0l0,0.1h0c0.1,0.2-0.1,0.5-0.2,0.6l-0.1,0l-0.1,0.1l-0.1,0
		c-0.1-0.1-0.1-0.1-0.1-0.2l0,0l0-0.1l0,0v0l0,0v0h0l0,0h0c0.1-0.2,0-0.4-0.1-0.5l0,0l-0.1,0c-0.1,0.1-0.1,0.1-0.1,0.3h0l0,0.4l0,0
		l0,0.1c0,0-0.1,0-0.1,0l-0.2-0.2l0-0.1l0,0l0-0.1h0c-0.1-0.2,0-0.4,0-0.6l0-0.1h0l0-0.1l0,0l0-0.1l0,0v0h0l0.1-0.3
		C28.5,8.8,28.3,8,28.7,8L28.7,8z"/>
	<path d="M24.1,11.2l0.4,0v0h0v0l0.2,0l0,0l0.1,0l0,0h0l0,0h0l0,0l0,0l0.1,0.1l0,0l0,0.1l0,0l0.1,0.1c0,0.2,0,0.3-0.2,0.3l0-0.1h0
		l0-0.1h0l0-0.1l0,0v0l0,0l0,0L25,11.7l0,0l0,0l-0.1-0.1h0l0-0.1h0v0l-0.1,0v0l-0.1,0v0l-0.1,0v0l-0.1,0v0l-0.2,0v0l-0.3,0
		c-0.1,0-0.2,0.1-0.3,0.1l-0.3,0v0l-0.1,0v0l-0.1,0l0,0.1L23,11.7v0l0,0v0l0,0l0,0l0,0v0h0l0,0.1c0,0-0.1,0-0.1,0.1c0,0,0,0,0,0
		c-0.1,0,0-0.1,0-0.2h0l0-0.1h0v-0.1h0l0,0l0,0v0l0,0l0.1-0.1h0l0,0l0.1,0v0h0v0h0v0l0,0l0,0l0.1,0v0h0.1l0,0l0.1,0v0h0.1v0l0.1,0v0
		l0.1,0v0l0.1,0v0l0.1,0l0,0C23.9,11.2,24,11.2,24.1,11.2L24.1,11.2z"/>
	<path d="M25.9,12.7c0-0.1,0-0.1,0-0.1l0.1,0v0h0l0,0l0.1,0l0,0l0.2-0.1v0l0.1,0l0-0.1l0,0l0,0l0,0l0-0.1h0l0-0.1
		c0.1-0.2,0.1-0.5,0.3-0.5v0h0v0c0,0,0,0,0,0.1c0,0-0.1,0.3-0.1,0.4l0,0.2h0V12h0l0,0.1h0l0,0.1h0l0,0.1h0v0l0,0l-0.1,0.1h0l0,0.1
		l0,0l0,0l0,0C26.1,12.7,26.1,12.8,25.9,12.7C25.9,12.7,25.9,12.8,25.9,12.7L25.9,12.7z"/>
	<path fill-rule="evenodd" clip-rule="evenodd" d="M23.6,11.7c0.3,0,0.6,0.1,0.7,0.3l0.1,0l0,0.1l0,0v0h0l0,0l0,0l0,0.1l0,0v0l0,0v0
		l0.1,0.1v0l0.3,0.2l0.4,0c0,0.1,0,0,0,0.1c-0.1,0-0.1,0.1-0.2,0.1l-0.1,0l0,0c-0.1,0-0.3,0-0.3-0.1l-0.2,0l-0.3-0.3
		c-0.1,0-0.2,0-0.2,0.1l0,0.1c-0.1,0.1-0.2,0.1-0.3,0.1c0,0,0,0-0.1,0l0,0h0l-0.1-0.1l0,0l0-0.1c0.1-0.1,0.3-0.2,0.3-0.4h0v0l-0.1,0
		l0,0l-0.2,0v0h-0.1l0,0.1h0l0,0.1l-0.1,0.1l0,0.1h0v0h0l0,0.1l0,0v0l0,0L23,12.7l0,0l0,0l-0.1,0l0,0c-0.1,0.1-0.2,0-0.2-0.1
		c0,0,0-0.1,0.1-0.1l0,0l0,0l0.1,0v0l0,0l0-0.1l0,0l0-0.1l0,0v0l0.1-0.1v0l0.1-0.1l0,0h0l0,0h0l0,0h0.1v0h0.1v0l0.1,0l0,0h0v0
		L23.6,11.7L23.6,11.7L23.6,11.7z"/>
	<path d="M23.2,12.9c0.1,0,0.1,0,0.2,0.1l0,0h0l0,0l0.1,0v0h0.1v0l0.2,0C24,13,24,13,24.2,13l0,0.1l0,0v0h0c0,0.1,0,0.1-0.1,0.1v0
		l-0.1,0l0,0l-0.1,0c-0.1,0-0.2,0.1-0.3,0C23.4,13.2,23.1,13.1,23.2,12.9L23.2,12.9z"/>
	<path d="M21.1,13.2L21.1,13.2c0.1,0,0.1,0,0.1,0.1l-0.1,0l0,0l0,0h0l0,0l0,0l0,0l0,0h0l-0.1,0.1h0l0,0l-0.1,0l0,0l0,0l0,0l0,0h0
		l0,0l0,0l0,0h0l0,0l0,0l0,0l-0.1,0l0,0.1h0l0,0h0l0,0.1h0l-0.1,0.1h0l-0.1,0.1l0,0l-0.1,0.1v0l0,0l0,0c0,0.1-0.1,0.2-0.1,0.3l0,0.1
		l0,0.1l0,0.3l-0.1,0.4l-0.1,0v0l-0.1,0.1l0,0.1l0,0l0,0l-0.1,0v0L19,16.3h0l0,0.1h0l0,0l0,0l-0.1,0l0,0h0l0,0l0,0l0,0h0l0,0l0,0
		l0,0c-0.1,0.1-0.1,0.1-0.3,0.1c0,0,0,0,0-0.1l0-0.1l0.1-0.1l0,0l0,0l0-0.1h0l0,0l0.1,0l0.1,0l0,0h0l0.1,0l0,0h0l0-0.1h0l0.1-0.1
		l0,0l0,0l0.1-0.1v0l0.1,0v0l0.1-0.1l0-0.2l0-0.2l0-0.5l0-0.1l0,0l0-0.1l0,0l0-0.1l0,0v0l0.2-0.2l0.2-0.2h0l0-0.1h0l0-0.1h0l0,0
		l0.1,0l0.1,0l0.1,0l0,0l0.1,0l0,0l0.1,0l0-0.1l0,0l0,0l0,0l0,0L21.1,13.2L21.1,13.2L21.1,13.2L21.1,13.2L21.1,13.2z"/>
	<path d="M17.8,16l-0.1,0c-0.1,0-0.2-0.1-0.3-0.1v0l0,0v0l-0.1,0c0,0,0,0.1,0,0.1l0,0c-0.1,0.1,0,0.1-0.2,0.1l0-0.1c0,0,0-0.2,0-0.2
		h0v-0.1l0.1-0.2l0.1,0l0.1-0.1l0.1-0.1l0.1-0.1l0-0.1l0.1-0.1l0-0.1l0.1-0.1l0,0l0,0h0l0,0l0,0v0l0.1,0c0.1,0,0.2-0.1,0.3-0.1
		c0,0,0.1,0,0.1,0.1l0.1,0.1l0,0v0h0l0,0.1h0c0,0.1,0,0.3,0,0.4l0,0l0,0h0v0.1l0,0l0,0l-0.1,0l0,0l-0.1,0.1l0,0h0l0,0.1l-0.1,0l0,0
		l-0.1,0l-0.1,0.1h0l0,0l0,0l0,0h0v0l0,0l0,0l0,0l0,0.1l-0.2,0.1v0l-0.1,0v0l-0.1,0.1c0,0,0,0,0,0c0,0,0,0,0-0.1c0,0,0,0,0-0.1l0,0
		v0l0.1,0v0l0.1-0.1l0,0l0.1,0L17.8,16L17.8,16L17.8,16z"/>
	<path fill="#FFFFFF" d="M18,15.9c0,0,0.1-0.1,0.1-0.1h0l0,0h0v0h0v0l0,0l0,0h0l0-0.1h0l0-0.2h0l0-0.1h0l0-0.1c0,0,0,0,0,0
		c0.1,0,0.2,0.2,0.1,0.4h0v0l0,0C18.4,15.7,18.2,15.9,18,15.9L18,15.9z"/>
	<path fill-rule="evenodd" clip-rule="evenodd" fill="#FFFFFF" d="M20.1,18.4c0,0.1,0,0.1-0.1,0.1l-0.1,0v0l-0.1,0v0l-0.1,0.1v0
		L19.7,19l-0.1,0.2h0l0,0.1l0,0l0,0h0l0,0h0v0l0,0l0,0h-0.1v0l-0.1,0v0l-0.1,0v0l-0.1,0v0l-0.2,0l-0.1-0.1c0-0.1,0-0.1,0-0.1l0.3,0
		v0l0.1,0v0l0.1,0v0c0.1,0,0.2,0,0.3,0l0.1-0.1l0,0l0,0l0.1,0l0-0.1l0.1,0C19.7,18.6,19.8,18.4,20.1,18.4L20.1,18.4z"/>
	<path fill="#FFFFFF" d="M6.7,34.9L6.7,34.9l0.1-0.1l0.1,0l0.1,0l0.1,0l0.1-0.1l0.1-0.1l0.1-0.1l0.1-0.1l0.1-0.1l0.1,0l0.1-0.1
		l0.2-0.2l0.1,0l0.1,0L8,34l0.1,0l0.1,0l0.1-0.1l0.1-0.1c0.1-0.1,0.2-0.1,0.3-0.2l0.2-0.2l0.1,0l0.4-0.4l0-0.1l0.3-0.3l0.1-0.1
		l0-0.1l0.1-0.1l0-0.1L10,32l0.1-0.1l0.1-0.1l0.1-0.1l0.1-0.1l0.3-0.3l0.1-0.1l0.1-0.1l0.1-0.1l0.1-0.1l0.1-0.1l0-0.1l0.1,0l0-0.1
		l0.1-0.1l0.2-0.2l0-0.1l0-0.1l0-0.1l0-0.1l0-0.1l0-0.1l0-0.1l0.1-0.1l0-0.1l0-0.1l0-0.1l0-0.1l0-0.1l0-0.1l0-0.1l0-0.1l0-0.1l0.1,0
		l0-0.1l0.1-0.1l0.1,0l0.1,0l0.1-0.1l0.2,0l0.1,0l0.1,0c0,0,0.1,0,0.1,0l0.1,0l0.1,0l0.1,0l0.1,0l0.1,0l0.1,0c0.2,0,0.4,0.1,0.5,0.1
		c0.2,0.1,0.4-0.1,0.5-0.1l0.1,0l0.1,0l0.4,0l0.1,0l0.1,0l0.1,0.1l0.1,0l0,0.1l0.1,0l0.1,0.1l0,0.1l0,0.1l0,0.1l0.1,0l0.1,0.1
		l0.1,0.1l0.1,0.1l0.1,0.1l0.1,0.1l0.1,0l0.1,0l0.1,0l0.1,0l0.1,0l0.1,0l0.1,0l0.1,0l0.1,0l0.1,0l0.1,0l0.1,0l0.1,0l0.1,0l0.2,0.1
		l1,0.5h0.1l0.1,0l0.1,0L19,31l0.1,0l0.1,0l0.1,0l0.1,0l0.2,0.2l0.1,0.1l0,0.1l0,0.1l0,0.2l0,0.1c0,0.1,0,0.3,0,0.5l0,0.3l0,0.1
		l0,0.1l0,0.1l0,0.1l-0.1,0.2l-0.1,0.1l-0.1,0c0-0.1-0.1,0-0.1,0c0,0.1-0.1,0.2-0.1,0.2l0,0.2L19.1,34c-0.1,0-0.1,0-0.2,0l0-0.1
		l0.1-0.1l0-0.1c0-0.1,0-0.1,0-0.2c-0.1,0-0.1,0-0.2,0l-0.1,0.1l-0.1,0.1l-0.1,0.1l-0.1,0.1c-0.2,0.1-0.4,0.2-0.7,0.2
		c0,0.1,0,0.2,0,0.2c0,0,0.1,0,0.1,0.1c0,0,0.1,0,0.1,0l0.1,0.1l0.1,0.1l0.2,0.5l0.1,0.1l0.1,0.1l0.1,0l0.2,0.1l0.1,0l0.1,0l0.1,0
		l0.1,0.1l0,0.1c0,0.1,0,0.1,0,0.2c-0.1,0-0.1,0-0.2,0l-0.1,0l-0.3-0.1l-0.1,0l-0.1,0l0-0.1l-0.1-0.1l-0.1-0.1l-0.2-0.1l-0.1-0.1
		L17.7,35l-0.2-0.2l-0.1-0.1l0-0.1l0-0.1l-0.1-0.1l-0.1-0.1l0-0.1l0-0.1L16.8,34l-0.3-0.3c-0.1-0.1-0.1-0.1-0.1-0.2l-0.1-0.1l0-0.1
		l0-0.1l-0.1-0.1l0-0.1l0-0.1l0-0.1l0-0.1l0-0.1l-0.1-0.1l0-0.1l0-0.1l0-0.1l-0.1-0.1l0-0.1l0-0.1l-0.1,0l0-0.1l0-0.1l0-0.1
		l-0.2-0.2l-0.1-0.1L15,31.7l-0.1,0l-0.1,0l-0.1-0.1l-0.1,0l-0.1,0l-0.1,0l-0.2-0.1l-0.2-0.1l-0.3,0c-0.1,0-0.2-0.1-0.4-0.1l-0.3,0
		l-0.1,0l-0.1,0l-0.1,0l-0.1,0.1l-0.1,0l-0.1,0.1l-0.1,0.1l-0.1,0.1l-0.1,0.1l-0.1,0c0,0-0.4,0.5-0.3,0.5c0,0.1,0,0.2-0.1,0.2l0,0.1
		l-0.1,0.1l0,0.1l0,0.1L11.5,33l0,0.1l0,0.1l0,0.1l0,0.1l0,0.1l0,0.1l-0.1,0.1l0,0.1l-0.1,0.2l0,0.1L11,34.1l0,0.1l-0.1,0.1
		l-0.1,0.2l-0.1,0.1l-0.1,0l0,0.1l-0.1,0.1l-0.1,0.1l0,0.1l0,0.1l-0.1,0.1l-0.1,0.1l-0.1,0.1c-0.1,0-0.1,0-0.1,0.1
		c-0.1,0-0.2,0-0.2-0.1l0-0.1l-0.1-0.1l-0.1,0l-0.1,0l-0.1,0l-0.3,0c0,0-0.1,0-0.2,0l-0.1,0l-0.1,0l0,0.1l-0.1,0l-0.1,0l-0.1,0.1
		l0,0.1l-0.1,0.1l0,0.1l-0.1,0.1l-0.1,0.1l0,0.1l0,0.1l-0.1,0.3c0,0.1,0,0.4,0,0.5l0,0.1l0,0.1l0,0.2l0.1,0.1l0.2,0
		c0.1,0,0.2,0,0.3,0l0.1,0.1l0,0.1l0,0.1l0,0.1l0.1,0l0.2,0.1l0,0.1l0.1,0.1l0,0.1L9.5,38l0,0.1l0.1,0.1l0,0.1l0,0.1l0,0.1l0,0.3
		c0,0.3,0,0.5-0.1,0.8l0,0.5l0,0.2l0,0.1l0,0.1l0,0.1l0,0.1l0,0.1l0,0.1l0,0.2l0,0.1l0,0.1l0,0.1l0,0.1l-0.1,0.1l-0.1,0.2l0,0.1
		l0,0.1l0,0.1l0,0.1l0,0.1l-0.2,0.2l-0.1,0c-0.1,0-0.2-0.1-0.3-0.1l-0.1,0l-0.1,0l-0.1,0l-0.1,0l-0.1,0l-0.1-0.1l-0.1,0l-0.1,0
		l-0.1,0l0-0.1l-0.1-0.1l-0.1,0l-0.1,0l0-0.1l-0.1,0l-0.1,0l-0.1-0.1l-0.1,0l-0.1,0H6.9l-0.1,0L6.8,41c0-0.1,0-0.1-0.1-0.1v-0.1
		c0-0.1,0.2-0.1,0.2-0.1l0.1,0l0.1,0l0.1-0.1l0.1-0.1l0.1-0.1l0.1-0.1l0-0.1l0-0.1l0.1-0.1l0-0.1l0-0.1l0.1-0.1l0-0.1l0-0.1l0-0.1
		l0-0.1l0-0.1l0.1-0.1l0-0.1l0-0.1l0-0.1L8,39l0-0.1l0-0.1l0.1-0.1l0.1-0.1l0-0.1l0-0.1l0-0.1l0-0.1l0.1-0.1l0.1-0.1L8.7,38
		c0,0,0.1-0.1,0.1-0.1c0-0.1,0-0.1,0-0.1c-0.3,0-0.4,0.2-0.5,0.3L8,38.3L8,38.4l0,0.1l0,0.1l-0.1,0.1l0,0.1l0,0.1l0,0.1l0,0.1l0,0.1
		l0,0.1l0,0.1l-0.2,0.6l0,0.1l0,0.1l-0.2,0.2L7,40.2l-0.1,0l-0.1,0.1l0,0.1l0,0.1c0,0.1-0.1,0.1-0.2,0.1c-0.1,0.1-0.1,0.1-0.1,0.1
		c-0.2,0-0.2-0.1-0.3-0.2l0-0.1l0.1-0.1l0.1,0l0.1-0.1l0-0.1c0-0.2-0.1-0.3-0.1-0.4l0-0.1c0,0-0.1-0.2,0-0.3l0-0.2l0-0.1l0-0.2
		l0-0.6c0.1-0.1,0-0.6,0-0.7l0-0.2l0-0.1l0-0.1l0-0.1l0-0.1l0-0.1l0-0.1l0-0.1c-0.1-0.1-0.1-0.2-0.1-0.3l0-0.2l0-0.1l0-0.1L6.2,36
		l0-0.1l0-0.1l0-0.1l0-0.1l0-0.1l0-0.1l0-0.1l0-0.1l0-0.1l0-0.1C6.6,35.1,6.6,35,6.7,34.9L6.7,34.9L6.7,34.9z"/>
	<path fill-rule="evenodd" clip-rule="evenodd" d="M7.4,36L7.4,36c0.1,0.1,0.1,0,0.1,0.1c0,0,0,0,0,0.1l-0.2,0.2
		c-0.2,0.3-0.4,0.5-0.9,0.4c0-0.1-0.1-0.1-0.1-0.1c0.1-0.1,0-0.1,0.2-0.1l0,0c0.1,0,0.3,0,0.3,0v0l0.1,0L7,36.4l0.1-0.1l0,0l0.1-0.1
		v0l0.1,0L7.4,36L7.4,36L7.4,36L7.4,36z"/>
	<path d="M19.5,40.5c0.1,0,0.1,0,0.2,0l0,0l0,0l0,0.1h0l0.1,0.1h0l0,0.1h0l0,0.1l0,0l0,0.1h0l0,0h0l0,0.1l0,0h0l0.1,0.1h0l0,0.1h0
		l0,0.1h0l0,0l0.1,0l0.1,0l0,0l0.1,0l0,0l0.1,0l0,0l0,0l0,0l0.1,0l0.1,0l0.1,0l0,0l0.1,0l0.1,0l0.1,0l0.1,0l0.2,0l0.1,0l0.1,0l0.2,0
		l0.1,0l0.1,0l0.1,0l0.3,0c0.1,0,0.2,0,0.3,0l0.5,0l0,0l0.1,0l0.1,0l0,0l0,0h0l0,0l0,0l0,0h0l0,0l0.1,0.1l0.2,0.2h0l0,0l0,0l0.1,0.1
		l0.1,0l0.2,0c0.1,0.1,0.3,0,0.4,0l0,0h0l0,0l0,0h0l0,0l0,0l0,0l0.1-0.1l0,0l0.1,0l0,0l0.1-0.1l0.2-0.2h0l0,0l0.1,0l0,0l0,0l0.1,0
		l0,0l0.1,0l0,0l0.1,0l0,0h0l0,0h0l0,0l0,0c0.1-0.1,0.1-0.1,0.3-0.1c0,0,0,0,0,0.1l-0.2,0.2l0,0l0,0l0,0l0,0l-0.1,0l0,0l0,0l0,0l0,0
		l0,0l0,0l0,0l0,0h0l-0.1,0l0,0l0,0l-0.1,0.1l0,0v0l0,0l0,0.1l0,0.1l0,0l0,0.1l0,0.1l0,0.1l0,0v0l-0.1,0.1v0L25.6,43l0,0l-0.1,0.1
		l0,0l0,0h0l0,0l-0.1,0l-0.5,0l-0.1,0L24.4,43l0,0h0l-0.1-0.1h0l-0.1-0.1h0L24,42.6h0l-0.1-0.1l0,0l0-0.1l-0.1,0l0,0l-0.1-0.1
		c-0.3-0.1-0.8-0.1-1.1-0.2l-0.5,0l-0.1,0l0,0l0-0.1h0l0-0.1h0l0,0l0,0l-0.2,0l0,0l-0.1,0l-0.1,0l-0.1,0l-0.1,0l0,0h0l0,0l-0.1,0
		l-0.1,0l0,0l-0.3-0.1l0,0l0,0l-0.1-0.1h0L20,41.1h0l0,0l0,0l0-0.1h0L19.5,40.5L19.5,40.5L19.5,40.5z"/>
	<path fill="#FFFFFF" d="M45.2,47.3c0.2,0,0.6,0.1,0.7,0.2l0,0.1l0,0l0,0.1h0l0,0h0v0h0l0,0.1h0c0,0.2-0.1,0.2-0.1,0.3l-0.2,0.1
		l-0.5,0c-0.2,0-0.4,0-0.6,0h-0.1v0l-0.1,0v0h0l0,0l-0.1,0v0h-0.1v0h-0.1v0l-0.2,0L43.9,48c0-0.1,0-0.1,0-0.2c0,0,0.1-0.1,0.1-0.2
		l0.2-0.1h0v0h0.1v0h0v0l0.1,0v0l0.4,0v0l0.3-0.1v0H45l0,0C45.1,47.3,45.2,47.3,45.2,47.3L45.2,47.3z"/>
	<path fill-rule="evenodd" clip-rule="evenodd" d="M14.4,47.5h0.1c0,0,0,0,0,0.1c0,0.2-0.1,0.3-0.2,0.4l0,0.1h0l0,0.1h0l0,0.1h0
		l0,0.1h0l0,0.1h0l0,0.3h0l0,0.3h0l0,0.2h0l0,0.2h0l0,0.2l0,0l0,0.1l0,0v0.1h0l0,0.1h0l0,0.1h0l0,0h0v0.1h0l0,0l0,0l0,0l0,0v0
		l-0.3,0.2c-0.1,0.1-0.2,0.2-0.4,0.3l0,0h-0.1c0,0,0,0,0-0.1h0l0-0.1h0v0l0.2-0.2l0.1-0.1l0.1,0l0,0l0.1,0l0,0l0,0v0l0,0v0l0,0l0,0
		h0l0-0.1h0l0-0.1h0v-0.1h0l0-0.1h0l0-0.1h0l0-0.2h0l0-0.3l0,0l0-0.3h0l0-0.3h0l0-0.1h0l0-0.1h0v0h0l0-0.1l0,0l0-0.1h0v0h0l0,0h0
		l0,0l0,0v-0.1l0,0L14.4,47.5L14.4,47.5L14.4,47.5L14.4,47.5z"/>
	<path fill="#FFFFFF" d="M55.3,59.5l-0.2,0l-0.1,0l-0.1,0l-0.1,0l-0.1,0l-0.1,0l-0.1-0.1l-0.1-0.1l-0.1-0.1l-0.1-0.1l-0.1,0L54.2,59
		l0-0.1l0-0.1l0-0.1l0-0.1l0-0.1l0-0.1l0.1-0.2c0.1-0.1,0-0.3,0-0.4c0-0.1,0-0.1,0-0.1l0-0.5l0-0.1l0-0.2c-0.1-0.2-0.1-0.5-0.2-0.8
		l0-0.3l0-0.1l0-0.1l0-0.1l0-0.1l0-0.1l0-0.1l0-0.1L53.5,55l-0.1-0.4l0-0.1l0-0.1l-0.1-0.2l0-0.1l0-0.1l0-0.1l0-0.1l0-0.1l-0.1-0.2
		l0-0.1l0-0.1l-0.1-0.2l-0.1-0.1l-0.1-0.1c-0.1-0.1-0.1-0.2,0-0.3l0.1,0l0.1,0l0.1,0l0.1,0c0.1,0,0.2-0.1,0.3,0l0.1,0l0.1,0.1l0.1,0
		l0,0.1l0.1,0l0.1,0l0.1,0l0,0.1l0.1,0.1l0.1,0c0,0.1,0.1,0.1,0.1,0.1c0,0.1,0,0.1,0.1,0.1l0.1,0.1l0,0.1l0.1,0.1l0,0.1l0.1,0.1
		l0.1,0.1l0.1,0l0.1,0c0.1,0.1,0.1,0.2,0.2,0.3l0,0.2l0.1,0.3l0.1,0l0.1,0l0-0.2l-0.1-0.2l0-0.1l0-0.1l0-0.1l0-0.1l0-0.1
		c0-0.1,0-0.3,0-0.3l0.1-0.2h0.1l0.1,0c0.1,0.1,0.1,0.3,0.2,0.4l0,0.1l0,0.1l0,0.1l0,0.2c0.1,0.2,0.1,0.5,0.2,0.7l0.1,0.5l0,0.1
		l0,0.1l0,0.1l0,0.1l0,0.2l0,0.1l0,0.1l0,0.2l0.2,0.5l0.1,0.1l0,0.1l0,0.1l0.1,0.1l0,0.1l0.1,0.1l0.1,0l0.1,0.1l0,0.1l0,0.1l0,0.1
		l0,0.1l0,0.1l0.1,0.1l0,0.1l0,0.1l0.1,0.1l0,0.1l0,0.2l0,0.1l0.2,0.8c0,0.1,0,0.3-0.1,0.4l0,0.1l-0.1,0.1l0,0.1l0,0.1L57.4,60
		l-0.2,0.1L57,60.2l-0.1,0c-0.1,0.1-0.3,0-0.3,0l-0.2,0c0,0-0.1-0.1-0.1-0.1l0-0.1c0,0,0,0-0.1,0c-0.1,0-0.1,0-0.1,0
		c-0.1,0,0,0-0.1,0.1l0,0.1c-0.1,0.1-0.1,0.4-0.1,0.5c0,0.1,0,0.3,0,0.3l0,0.1l0,0.1l0,0.1l-0.1,0.1l0,0.1l0,0.1l0,0.1l0,0.1l0,0.1
		l-0.1,0.1l0,0.1l0,0.1l-0.1,0.1L55.2,62l-0.1,0.1l0,0.1l0,0.1l0,0.1l0,0.1l0,0.1l0,0.1l0,0.1l0,0.1l0,0.1l0,0.1
		c0,0-0.2,0.1-0.2,0.1l-0.3,0l0,0.1l0.3,0.1l0.1,0l0.1,0l0.1,0.1l0,0.1c0.1,0.2,0.2,0.3,0.2,0.6c0,0-0.1,0-0.2,0l-0.1,0l-0.1,0
		l-0.1,0l-0.1,0l-0.1,0l-0.1,0l-0.1,0l-0.1,0l-0.2,0l-0.2,0l-0.1,0l-0.2,0l-0.5,0l-0.1,0c-0.3,0-0.5,0-0.8,0c-0.1,0-0.2,0-0.2,0
		c-0.1,0-0.1,0-0.1,0c0,0.1,0,0.1,0,0.1l0.1,0l0.1,0C52,64,52.4,64,52.6,64l0.4,0l0.3,0l0.1,0l0.2,0l0.3,0l0.2,0l0.1,0l0.1,0.1
		l0.1,0l0.1,0.1l0.1,0l0.1,0l0.1,0.1l0,0.1l0.2,0.1l0.1,0.1l0.1,0.1l0,0.1l0.1,0.2v0.1c0,0-0.1,0.1-0.1,0.1l0,0.1l-0.1,0.1l-0.1,0
		l-0.1,0.1l-0.2,0.1l-0.1,0.1l-0.1,0l-0.1,0l-0.2,0.1L54,66l-0.1,0l-0.1,0l-0.2,0.1l-0.1,0l-0.1,0l-0.3,0.1l-0.1,0l-0.1,0l-0.1,0
		l-0.1,0l-0.3,0l-0.1,0l-0.1,0l-0.2,0l-0.1,0l-0.2,0l-0.1,0l-0.1,0l-0.2,0l-0.2,0l-0.3,0l-0.2,0c-0.1-0.1-0.4,0-0.5,0l-0.4,0
		c-0.1,0-0.1-0.1-0.1-0.1c0-0.1,0-0.1,0-0.2v-0.1l0-0.2l0-0.1l0-0.1l0-0.1l0-0.1l0-0.1l0-0.1l0.1-0.1l0.1-0.2l0-0.1l0-0.1l0-0.1
		l0.1-0.1l0-0.1l0-0.1l0.1-0.1l0-0.1l0-0.1l0-0.1l0-0.1l0.1-0.2l0-0.1l0-0.1l0.1-0.4l0.1-0.1l0.1-0.1l0-0.1l0-0.1l0-0.2
		c0-0.1,0.1-0.4,0.1-0.4l0.1,0l0.1,0l0.2-0.1l0.1,0l0.1-0.1l0.1,0l0.1-0.1l0.1,0l0.1-0.1l0.1,0l0.1,0l0-0.1l0.1,0l0.1-0.1l0.2-0.2
		l0.1-0.1l0-0.1l0-0.1l0-0.1l0-0.1l0-0.1l0-0.1l0-0.1l0-0.1l0-0.1l0-0.1l0-0.1l0-0.1l0-0.1l0-0.1l0.1-0.1l0.1-0.1l0-0.1l0.1-0.1
		l0-0.1l0-0.1l0-0.1l0-0.1l0.1-0.1l0-0.1l0-0.1l0.1,0l0.1-0.1l0.1-0.1l0.1,0c0.1,0,0.1,0,0.1,0c0,0.2,0,0.2-0.1,0.3l0,0.1
		c0,0.1,0,0.1,0,0.1c0.1,0,0.2,0,0.2,0l0.1,0l0.1-0.1l0.1-0.1l0.1-0.1l0.1,0l0.1,0l0.2-0.1l0.1,0l0.1-0.2L55.3,59.5L55.3,59.5z"/>
</g>
</svg>
